<svg width="300" height="150" viewBox="0 0 300 150" fill="none" xmlns="http://www.w3.org/2000/svg">
<path d="M296 150C298.209 150 300.006 148.208 299.947 146C298.925 107.668 283.252 71.1203 256.066 43.934C227.936 15.8035 189.782 3.00349e-06 150 0C110.218 -3.00349e-06 72.0645 15.8035 43.934 43.934C16.7477 71.1203 1.07474 107.668 0.0532783 146C-0.00556902 148.208 1.79086 150 4 150H26C28.2091 150 29.993 148.208 30.0666 146C31.0787 115.626 43.5874 86.707 65.1472 65.1472C87.6516 42.6428 118.174 30 150 30C181.826 30 212.348 42.6428 234.853 65.1472C256.413 86.707 268.921 115.626 269.933 146C270.007 148.208 271.791 150 274 150H296Z" fill="#C2C2C2"/>
<path d="M4 150C1.79086 150 -0.0055726 148.209 0.0533294 146C0.542366 127.665 4.39044 109.564 11.4181 92.5975C18.9563 74.3986 30.0052 57.8628 43.934 43.934C57.8628 30.0052 74.3987 18.9563 92.5975 11.4181C110.796 3.87986 130.302 -8.61039e-07 150 0C169.698 8.61039e-07 189.204 3.87987 207.403 11.4181C225.601 18.9563 242.137 30.0052 256.066 43.934C269.995 57.8628 281.044 74.3987 288.582 92.5975C295.61 109.564 299.458 127.665 299.947 146C300.006 148.209 298.209 150 296 150L274 150C271.791 150 270.007 148.209 269.933 146.001C269.453 131.606 266.385 117.404 260.866 104.078C254.835 89.5189 245.996 76.2902 234.853 65.1472C223.71 54.0042 210.481 45.165 195.922 39.1345C181.363 33.1039 165.759 30 150 30C134.241 30 118.637 33.1039 104.078 39.1345C89.5189 45.165 76.2902 54.0042 65.1472 65.1472C54.0042 76.2902 45.165 89.5189 39.1345 104.078C33.6145 117.404 30.5466 131.606 30.0667 146.001C29.993 148.209 28.2091 150 26 150H4Z" fill="#023047"/>
<path d="M103.232 140V135.716H108.992V118.868H104.132V115.592C106.832 115.088 108.632 114.404 110.36 113.36H114.284V135.716H119.288V140H103.232ZM132.171 140.504C126.735 140.504 123.135 135.788 123.135 126.572C123.135 117.392 126.735 112.892 132.171 112.892C137.571 112.892 141.171 117.392 141.171 126.572C141.171 135.788 137.571 140.504 132.171 140.504ZM132.171 136.364C134.475 136.364 136.167 134.06 136.167 126.572C136.167 119.12 134.475 116.96 132.171 116.96C129.867 116.96 128.139 119.12 128.139 126.572C128.139 134.06 129.867 136.364 132.171 136.364ZM153.405 140.504C147.969 140.504 144.369 135.788 144.369 126.572C144.369 117.392 147.969 112.892 153.405 112.892C158.805 112.892 162.405 117.392 162.405 126.572C162.405 135.788 158.805 140.504 153.405 140.504ZM153.405 136.364C155.709 136.364 157.401 134.06 157.401 126.572C157.401 119.12 155.709 116.96 153.405 116.96C151.101 116.96 149.373 119.12 149.373 126.572C149.373 134.06 151.101 136.364 153.405 136.364ZM171.652 129.776C167.836 129.776 165.136 126.608 165.136 121.28C165.136 115.952 167.836 112.892 171.652 112.892C175.468 112.892 178.168 115.952 178.168 121.28C178.168 126.608 175.468 129.776 171.652 129.776ZM171.652 126.788C173.2 126.788 174.388 125.168 174.388 121.28C174.388 117.356 173.2 115.88 171.652 115.88C170.068 115.88 168.88 117.356 168.88 121.28C168.88 125.168 170.068 126.788 171.652 126.788ZM172.516 140.504L186.988 112.892H190.156L175.648 140.504H172.516ZM191.02 140.504C187.24 140.504 184.54 137.372 184.54 132.008C184.54 126.68 187.24 123.584 191.02 123.584C194.8 123.584 197.5 126.68 197.5 132.008C197.5 137.372 194.8 140.504 191.02 140.504ZM191.02 137.516C192.568 137.516 193.792 135.932 193.792 132.008C193.792 128.084 192.568 126.608 191.02 126.608C189.472 126.608 188.248 128.084 188.248 132.008C188.248 135.932 189.472 137.516 191.02 137.516Z" fill="#0A0A0A"/>
</svg>
