<svg width="300" height="150" viewBox="0 0 300 150" fill="none" xmlns="http://www.w3.org/2000/svg">
<path d="M296 150C298.209 150 300.006 148.208 299.947 146C298.925 107.668 283.252 71.1203 256.066 43.934C227.936 15.8035 189.782 3.00349e-06 150 0C110.218 -3.00349e-06 72.0645 15.8035 43.934 43.934C16.7477 71.1203 1.07474 107.668 0.0532783 146C-0.00556902 148.208 1.79086 150 4 150H26C28.2091 150 29.993 148.208 30.0666 146C31.0787 115.626 43.5874 86.707 65.1472 65.1472C87.6516 42.6428 118.174 30 150 30C181.826 30 212.348 42.6428 234.853 65.1472C256.413 86.707 268.921 115.626 269.933 146C270.007 148.208 271.791 150 274 150H296Z" fill="#C2C2C2"/>
<path d="M4 150C1.79086 150 -0.00556773 148.208 0.0532996 146C0.992673 110.76 14.3203 76.9263 37.7643 50.4855C62.094 23.0456 95.633 5.46934 132.042 1.07886C168.451 -3.31161 205.207 5.78795 235.362 26.6575C264.419 46.7673 285.408 76.4631 294.697 110.469C295.28 112.6 293.961 114.768 291.815 115.293L270.445 120.523C268.3 121.048 266.141 119.731 265.544 117.604C258.008 90.7216 241.315 67.2616 218.289 51.326C194.165 34.6304 164.761 27.3507 135.633 30.8631C106.506 34.3755 79.6752 48.4365 60.2114 70.3884C41.6337 91.3409 30.9966 118.096 30.0666 146C29.993 148.208 28.2091 150 26 150H4Z" fill="#023047"/>
<path d="M92.5257 140.504C89.1777 140.504 86.8017 139.136 85.1817 137.48L87.9897 134.276C88.9977 135.392 90.6177 136.22 92.2017 136.22C95.3337 136.22 97.8897 133.7 97.8897 126.068C97.8897 119.264 95.8377 116.852 93.2457 116.852C91.2297 116.852 89.6097 118.472 89.6097 121.784C89.6097 124.88 91.1217 126.392 93.3897 126.392C94.9017 126.392 96.5577 125.564 97.8537 123.368L98.1417 126.968C96.7017 128.948 94.2897 130.136 92.4177 130.136C87.9537 130.136 84.7857 127.436 84.7857 121.784C84.7857 116.276 88.6017 112.892 93.1377 112.892C98.2137 112.892 102.75 116.852 102.75 126.068C102.75 136.148 97.8177 140.504 92.5257 140.504ZM106.092 140V136.976C113.364 130.46 117.612 125.456 117.612 121.352C117.612 118.688 116.208 117.032 113.652 117.032C111.672 117.032 110.124 118.292 108.756 119.804L105.84 116.924C108.288 114.296 110.7 112.892 114.336 112.892C119.34 112.892 122.724 116.096 122.724 121.064C122.724 125.924 118.692 131.108 113.832 135.86C115.164 135.716 116.928 135.536 118.188 135.536H123.948V140H106.092ZM131.646 140.504C129.738 140.504 128.37 139.028 128.37 137.048C128.37 135.068 129.738 133.628 131.646 133.628C133.518 133.628 134.958 135.068 134.958 137.048C134.958 139.028 133.518 140.504 131.646 140.504ZM147.349 140.504C143.137 140.504 140.293 138.956 138.421 136.796L140.941 133.448C142.525 134.996 144.433 136.22 146.845 136.22C149.581 136.22 151.417 134.852 151.417 132.476C151.417 129.848 149.869 128.228 144.073 128.228V124.412C148.969 124.412 150.553 122.756 150.553 120.38C150.553 118.292 149.257 117.032 146.989 117.032C145.081 117.032 143.533 117.932 141.949 119.408L139.249 116.132C141.553 114.152 144.109 112.892 147.205 112.892C152.353 112.892 155.845 115.412 155.845 119.984C155.845 122.828 154.261 124.952 151.417 126.032V126.212C154.441 127.076 156.745 129.272 156.745 132.8C156.745 137.696 152.461 140.504 147.349 140.504ZM170.096 140.504C165.056 140.504 160.52 136.436 160.52 127.04C160.52 117.14 165.452 112.892 170.852 112.892C174.092 112.892 176.468 114.224 178.088 115.916L175.244 119.048C174.344 118.004 172.688 117.14 171.176 117.14C167.936 117.14 165.38 119.624 165.38 127.04C165.38 133.952 167.396 136.508 170.024 136.508C172.004 136.508 173.624 134.852 173.624 131.612C173.624 128.444 172.112 127.004 169.844 127.004C168.368 127.004 166.676 127.796 165.344 129.992L165.128 126.392C166.532 124.412 169.016 123.26 170.816 123.26C175.28 123.26 178.484 125.888 178.484 131.612C178.484 137.084 174.632 140.504 170.096 140.504ZM187.622 129.776C183.806 129.776 181.106 126.608 181.106 121.28C181.106 115.952 183.806 112.892 187.622 112.892C191.438 112.892 194.138 115.952 194.138 121.28C194.138 126.608 191.438 129.776 187.622 129.776ZM187.622 126.788C189.17 126.788 190.358 125.168 190.358 121.28C190.358 117.356 189.17 115.88 187.622 115.88C186.038 115.88 184.85 117.356 184.85 121.28C184.85 125.168 186.038 126.788 187.622 126.788ZM188.486 140.504L202.958 112.892H206.126L191.618 140.504H188.486ZM206.99 140.504C203.21 140.504 200.51 137.372 200.51 132.008C200.51 126.68 203.21 123.584 206.99 123.584C210.77 123.584 213.47 126.68 213.47 132.008C213.47 137.372 210.77 140.504 206.99 140.504ZM206.99 137.516C208.538 137.516 209.762 135.932 209.762 132.008C209.762 128.084 208.538 126.608 206.99 126.608C205.442 126.608 204.218 128.084 204.218 132.008C204.218 135.932 205.442 137.516 206.99 137.516Z" fill="#0A0A0A"/>
</svg>
