<svg width="300" height="150" viewBox="0 0 300 150" fill="none" xmlns="http://www.w3.org/2000/svg">
<path d="M296 150C298.209 150 300.006 148.208 299.947 146C298.925 107.668 283.252 71.1203 256.066 43.934C227.936 15.8035 189.782 3.00349e-06 150 0C110.218 -3.00349e-06 72.0645 15.8035 43.934 43.934C16.7477 71.1203 1.07474 107.668 0.0532783 146C-0.00556902 148.208 1.79086 150 4 150H26C28.2091 150 29.993 148.208 30.0666 146C31.0787 115.626 43.5874 86.707 65.1472 65.1472C87.6516 42.6428 118.174 30 150 30C181.826 30 212.348 42.6428 234.853 65.1472C256.413 86.707 268.921 115.626 269.933 146C270.007 148.208 271.791 150 274 150H296Z" fill="#C2C2C2"/>
<path d="M4 150C1.79086 150 -0.0055542 148.208 0.0533142 146C0.992676 110.76 14.3203 76.9263 37.7643 50.4855C62.094 23.0456 95.633 5.46934 132.042 1.07886C168.451 -3.31161 205.207 5.78795 235.362 26.6575C264.419 46.7673 285.408 76.4631 294.697 110.469C295.28 112.6 293.961 114.768 291.815 115.293L270.445 120.523C268.3 121.048 266.141 119.731 265.544 117.604C258.008 90.7216 241.315 67.2616 218.289 51.326C194.165 34.6304 164.761 27.3507 135.633 30.8631C106.506 34.3755 79.6752 48.4365 60.2114 70.3884C41.6337 91.3409 30.9966 118.096 30.0666 146C29.993 148.208 28.2091 150 26 150H4Z" fill="#FB8500"/>
<path d="M89.716 121.748C89.716 124.88 91.192 126.356 93.496 126.356C94.972 126.356 96.664 125.528 97.888 123.476C97.42 118.652 95.584 116.852 93.316 116.852C91.336 116.852 89.716 118.472 89.716 121.748ZM92.596 140.504C89.284 140.504 86.872 139.1 85.288 137.48L88.096 134.276C89.068 135.356 90.688 136.184 92.272 136.184C95.26 136.184 97.708 133.916 97.96 127.256C96.556 129.056 94.288 130.136 92.488 130.136C88.06 130.136 84.856 127.4 84.856 121.748C84.856 116.276 88.672 112.856 93.244 112.856C98.284 112.856 102.82 116.816 102.82 126.068C102.82 136.148 97.888 140.504 92.596 140.504ZM106.163 140V136.94C113.399 130.46 117.683 125.456 117.683 121.352C117.683 118.652 116.243 117.032 113.687 117.032C111.743 117.032 110.159 118.292 108.791 119.768L105.911 116.888C108.359 114.26 110.735 112.856 114.371 112.856C119.411 112.856 122.759 116.096 122.759 121.064C122.759 125.888 118.763 131.072 113.903 135.824C115.235 135.68 116.999 135.536 118.259 135.536H124.019V140H106.163ZM131.646 140.504C129.774 140.504 128.37 138.992 128.37 137.048C128.37 135.068 129.774 133.592 131.646 133.592C133.554 133.592 134.958 135.068 134.958 137.048C134.958 138.992 133.554 140.504 131.646 140.504ZM147.385 140.504C143.173 140.504 140.329 138.92 138.457 136.796L140.941 133.448C142.525 134.996 144.469 136.184 146.881 136.184C149.581 136.184 151.417 134.852 151.417 132.44C151.417 129.848 149.869 128.192 144.073 128.192V124.412C148.969 124.412 150.553 122.72 150.553 120.344C150.553 118.256 149.257 117.032 146.989 117.032C145.081 117.032 143.533 117.896 141.949 119.372L139.249 116.132C141.553 114.116 144.109 112.856 147.241 112.856C152.389 112.856 155.881 115.412 155.881 119.948C155.881 122.828 154.261 124.916 151.453 126.032V126.212C154.441 127.04 156.745 129.272 156.745 132.764C156.745 137.66 152.461 140.504 147.385 140.504ZM169.809 126.968C168.369 126.968 166.677 127.76 165.453 129.776C165.957 134.636 167.757 136.508 169.989 136.508C171.969 136.508 173.625 134.852 173.625 131.576C173.625 128.444 172.113 126.968 169.809 126.968ZM170.097 140.504C165.021 140.504 160.521 136.436 160.521 127.04C160.521 117.104 165.453 112.856 170.817 112.856C174.093 112.856 176.433 114.224 178.053 115.88L175.245 119.048C174.309 117.968 172.689 117.104 171.141 117.104C168.081 117.104 165.561 119.408 165.345 126.104C166.785 124.304 169.089 123.224 170.817 123.224C175.281 123.224 178.449 125.888 178.449 131.576C178.449 137.048 174.633 140.504 170.097 140.504ZM187.552 129.74C183.736 129.74 181.072 126.608 181.072 121.244C181.072 115.916 183.736 112.856 187.552 112.856C191.368 112.856 194.068 115.916 194.068 121.244C194.068 126.608 191.368 129.74 187.552 129.74ZM187.552 126.752C189.1 126.752 190.324 125.168 190.324 121.244C190.324 117.32 189.1 115.844 187.552 115.844C186.004 115.844 184.816 117.32 184.816 121.244C184.816 125.168 186.004 126.752 187.552 126.752ZM188.452 140.504L202.924 112.856H206.056L191.584 140.504H188.452ZM206.92 140.504C203.14 140.504 200.44 137.336 200.44 132.008C200.44 126.644 203.14 123.584 206.92 123.584C210.7 123.584 213.436 126.644 213.436 132.008C213.436 137.336 210.7 140.504 206.92 140.504ZM206.92 137.48C208.468 137.48 209.692 135.932 209.692 132.008C209.692 128.084 208.468 126.572 206.92 126.572C205.372 126.572 204.184 128.084 204.184 132.008C204.184 135.932 205.372 137.48 206.92 137.48Z" fill="#333333"/>
</svg>
