<svg width="300" height="150" viewBox="0 0 300 150" fill="none" xmlns="http://www.w3.org/2000/svg">
<path d="M296 150C298.209 150 300.006 148.208 299.947 146C298.925 107.668 283.252 71.1203 256.066 43.934C227.936 15.8035 189.782 3.00349e-06 150 0C110.218 -3.00349e-06 72.0645 15.8035 43.934 43.934C16.7477 71.1203 1.07474 107.668 0.0532783 146C-0.00556902 148.208 1.79086 150 4 150H26C28.2091 150 29.993 148.208 30.0666 146C31.0787 115.626 43.5874 86.707 65.1472 65.1472C87.6516 42.6428 118.174 30 150 30C181.826 30 212.348 42.6428 234.853 65.1472C256.413 86.707 268.921 115.626 269.933 146C270.007 148.208 271.791 150 274 150H296Z" fill="#C2C2C2"/>
<path d="M4 150C1.79086 150 -0.00556853 148.208 0.0532869 146C1.04399 108.827 15.8155 73.2901 41.5784 46.343C68.264 18.4308 104.686 1.88558 143.264 0.151342C181.841 -1.5829 219.601 11.6275 248.683 37.0326C276.76 61.5593 294.661 95.6277 298.983 132.562C299.24 134.756 297.611 136.701 295.411 136.9L273.5 138.874C271.3 139.072 269.362 137.447 269.091 135.255C265.471 106.014 251.207 79.0714 228.947 59.6261C205.681 39.302 175.473 28.7337 144.611 30.1211C113.749 31.5085 84.6112 44.7447 63.2628 67.0744C42.8373 88.4387 31.0479 116.552 30.0666 146C29.993 148.208 28.2091 150 26 150H4Z" fill="#023047"/>
<path d="M92.5257 140.504C89.1777 140.504 86.8017 139.136 85.1817 137.48L87.9897 134.276C88.9977 135.392 90.6177 136.22 92.2017 136.22C95.3337 136.22 97.8897 133.7 97.8897 126.068C97.8897 119.264 95.8377 116.852 93.2457 116.852C91.2297 116.852 89.6097 118.472 89.6097 121.784C89.6097 124.88 91.1217 126.392 93.3897 126.392C94.9017 126.392 96.5577 125.564 97.8537 123.368L98.1417 126.968C96.7017 128.948 94.2897 130.136 92.4177 130.136C87.9537 130.136 84.7857 127.436 84.7857 121.784C84.7857 116.276 88.6017 112.892 93.1377 112.892C98.2137 112.892 102.75 116.852 102.75 126.068C102.75 136.148 97.8177 140.504 92.5257 140.504ZM111.24 140C111.744 130.784 113.256 124.844 118.368 117.788H106.38V113.36H124.056V116.564C117.864 124.124 117.072 129.596 116.604 140H111.24ZM131.646 140.504C129.738 140.504 128.37 139.028 128.37 137.048C128.37 135.068 129.738 133.628 131.646 133.628C133.518 133.628 134.958 135.068 134.958 137.048C134.958 139.028 133.518 140.504 131.646 140.504ZM140.437 140V135.716H146.197V118.868H141.337V115.592C144.037 115.088 145.837 114.404 147.565 113.36H151.489V135.716H156.493V140H140.437ZM170.852 140V123.62C170.852 122.072 170.996 119.66 171.068 118.076H170.924C170.24 119.516 169.52 120.992 168.764 122.432L164.66 129.056H178.952V133.124H159.512V129.488L169.412 113.36H175.784V140H170.852ZM187.622 129.776C183.806 129.776 181.106 126.608 181.106 121.28C181.106 115.952 183.806 112.892 187.622 112.892C191.438 112.892 194.138 115.952 194.138 121.28C194.138 126.608 191.438 129.776 187.622 129.776ZM187.622 126.788C189.17 126.788 190.358 125.168 190.358 121.28C190.358 117.356 189.17 115.88 187.622 115.88C186.038 115.88 184.85 117.356 184.85 121.28C184.85 125.168 186.038 126.788 187.622 126.788ZM188.486 140.504L202.958 112.892H206.126L191.618 140.504H188.486ZM206.99 140.504C203.21 140.504 200.51 137.372 200.51 132.008C200.51 126.68 203.21 123.584 206.99 123.584C210.77 123.584 213.47 126.68 213.47 132.008C213.47 137.372 210.77 140.504 206.99 140.504ZM206.99 137.516C208.538 137.516 209.762 135.932 209.762 132.008C209.762 128.084 208.538 126.608 206.99 126.608C205.442 126.608 204.218 128.084 204.218 132.008C204.218 135.932 205.442 137.516 206.99 137.516Z" fill="#0A0A0A"/>
</svg>
