<svg width="420" height="460" viewBox="0 0 420 460" fill="none" xmlns="http://www.w3.org/2000/svg">
<path d="M224.707 94.7119C257.64 94.7119 289.896 104.081 317.713 121.726C345.531 139.371 367.765 164.566 381.824 194.375C395.883 224.183 401.188 257.377 397.12 290.088C393.052 322.798 379.78 353.678 358.85 379.127L251.535 290.713C255.721 285.623 258.376 279.447 259.189 272.905C260.003 266.363 258.942 259.724 256.13 253.763C253.318 247.801 248.871 242.762 243.308 239.233C237.744 235.704 231.293 233.83 224.707 233.83V94.7119Z" fill="#023047"/>
<path d="M358.79 379.2C341.856 399.768 320.424 416.166 296.15 427.125C271.876 438.085 245.411 443.314 218.797 442.407C192.183 441.5 166.134 434.483 142.661 421.897C119.188 409.311 98.9196 391.493 83.4212 369.82L196.45 288.852C199.549 293.186 203.603 296.75 208.297 299.267C212.992 301.784 218.202 303.188 223.525 303.369C228.847 303.551 234.141 302.505 238.995 300.313C243.85 298.121 248.136 294.842 251.523 290.728L358.79 379.2Z" fill="#6E8B9A"/>
<path d="M86.4246 373.893C69.5173 351.647 58.2167 325.65 53.4802 298.104C48.7437 270.558 50.7109 242.276 59.2153 215.653C67.7196 189.029 82.5103 164.85 102.334 145.164C122.158 125.477 146.431 110.864 173.097 102.561L214.385 235.4C209.052 237.061 204.197 239.983 200.232 243.921C196.267 247.858 193.309 252.694 191.608 258.018C189.907 263.343 189.514 269 190.461 274.509C191.409 280.018 193.669 285.217 197.05 289.666L86.4246 373.893Z" fill="#219EBC"/>
<path d="M173.155 102.543C189.308 97.5198 206.107 94.8844 223.021 94.7201L224.369 233.832C220.987 233.865 217.627 234.392 214.396 235.396L173.155 102.543Z" fill="#8ECAE6"/>
<path d="M222.96 94.7207C223.287 94.7174 223.615 94.715 223.942 94.7136L224.554 233.831C224.488 233.831 224.423 233.831 224.357 233.832L222.96 94.7207Z" fill="#FB8500"/>
<path d="M299.312 260.336C296.552 260.336 294.848 259.184 293.696 257.912L294.8 256.472C295.832 257.552 297.152 258.512 299.168 258.512C301.256 258.512 302.744 257.24 302.744 255.224C302.744 253.112 301.328 251.72 297.272 251.72V250.016C300.896 250.016 302.12 248.576 302.12 246.656C302.12 244.976 300.992 243.872 299.168 243.872C297.752 243.872 296.504 244.592 295.52 245.6L294.344 244.184C295.664 242.984 297.224 242.096 299.24 242.096C302.192 242.096 304.352 243.704 304.352 246.512C304.352 248.648 303.104 250.064 301.232 250.736V250.832C303.296 251.336 304.976 252.896 304.976 255.32C304.976 258.44 302.456 260.336 299.312 260.336ZM313.056 260.336C310.32 260.336 308.64 259.184 307.44 257.984L308.544 256.544C309.528 257.576 310.824 258.512 312.84 258.512C314.928 258.512 316.585 256.904 316.585 254.36C316.585 251.84 315.145 250.328 312.96 250.328C311.784 250.328 311.04 250.712 310.032 251.384L308.856 250.64L309.408 242.408H317.977V244.28H311.328L310.872 249.368C311.664 248.936 312.456 248.672 313.512 248.672C316.44 248.672 318.817 250.4 318.817 254.288C318.817 258.128 316.008 260.336 313.056 260.336ZM323.897 260.336C323.033 260.336 322.337 259.64 322.337 258.656C322.337 257.648 323.033 256.976 323.897 256.976C324.785 256.976 325.505 257.648 325.505 258.656C325.505 259.64 324.785 260.336 323.897 260.336ZM328.801 260V258.728C334.321 253.904 336.841 250.376 336.841 247.376C336.841 245.36 335.809 243.872 333.625 243.872C332.185 243.872 330.937 244.76 329.953 245.912L328.681 244.688C330.121 243.128 331.657 242.096 333.889 242.096C337.033 242.096 339.001 244.136 339.001 247.28C339.001 250.808 336.241 254.384 332.089 258.296C333.025 258.2 334.081 258.128 334.969 258.128H339.841V260H328.801ZM347.153 260.336C345.233 260.336 343.889 259.568 342.905 258.536L344.129 257.144C344.873 258.008 345.953 258.512 347.081 258.512C349.433 258.512 351.473 256.472 351.473 250.448C351.473 246.128 350.105 243.8 347.633 243.8C345.953 243.8 344.657 245.384 344.657 247.808C344.657 250.16 345.713 251.72 347.801 251.72C348.977 251.72 350.345 251.024 351.497 249.272L351.617 251.024C350.513 252.416 348.953 253.328 347.441 253.328C344.489 253.328 342.593 251.456 342.593 247.808C342.593 244.4 344.897 242.096 347.633 242.096C351.017 242.096 353.537 244.856 353.537 250.448C353.537 257.6 350.465 260.336 347.153 260.336ZM360.25 253.184C357.826 253.184 356.242 251.168 356.242 247.616C356.242 244.088 357.826 242.096 360.25 242.096C362.674 242.096 364.258 244.088 364.258 247.616C364.258 251.168 362.674 253.184 360.25 253.184ZM360.25 251.84C361.642 251.84 362.578 250.4 362.578 247.616C362.578 244.808 361.642 243.44 360.25 243.44C358.858 243.44 357.898 244.808 357.898 247.616C357.898 250.4 358.858 251.84 360.25 251.84ZM360.754 260.336L370.45 242.096H371.938L362.242 260.336H360.754ZM372.514 260.336C370.09 260.336 368.506 258.32 368.506 254.744C368.506 251.24 370.09 249.224 372.514 249.224C374.89 249.224 376.498 251.24 376.498 254.744C376.498 258.32 374.89 260.336 372.514 260.336ZM372.514 258.992C373.882 258.992 374.842 257.552 374.842 254.744C374.842 251.936 373.882 250.592 372.514 250.592C371.122 250.592 370.162 251.936 370.162 254.744C370.162 257.552 371.122 258.992 372.514 258.992Z" fill="white"/>
<path d="M176.056 374V372.704C181.576 367.88 184.12 364.376 184.12 361.352C184.12 359.336 183.064 357.872 180.88 357.872C179.44 357.872 178.192 358.76 177.232 359.912L175.96 358.664C177.4 357.104 178.912 356.072 181.144 356.072C184.288 356.072 186.256 358.136 186.256 361.28C186.256 364.784 183.496 368.36 179.368 372.272C180.28 372.2 181.36 372.104 182.248 372.104H187.12V374H176.056ZM191.912 361.784C191.912 364.16 192.968 365.696 195.056 365.696C196.257 365.696 197.6 365 198.729 363.344C198.488 359.72 197.145 357.8 194.888 357.8C193.208 357.8 191.912 359.384 191.912 361.784ZM194.408 374.312C192.512 374.312 191.168 373.544 190.184 372.512L191.408 371.144C192.128 371.984 193.208 372.488 194.336 372.488C196.616 372.488 198.585 370.616 198.753 365.168C197.672 366.488 196.16 367.328 194.696 367.328C191.768 367.328 189.848 365.432 189.848 361.784C189.848 358.376 192.152 356.072 194.888 356.072C198.272 356.072 200.792 358.856 200.792 364.448C200.792 371.576 197.72 374.312 194.408 374.312ZM205.921 374.312C205.057 374.312 204.337 373.64 204.337 372.656C204.337 371.648 205.057 370.952 205.921 370.952C206.785 370.952 207.505 371.648 207.505 372.656C207.505 373.64 206.785 374.312 205.921 374.312ZM216.081 374.312C213.321 374.312 211.593 373.16 210.441 371.912L211.545 370.472C212.577 371.552 213.921 372.488 215.913 372.488C218.001 372.488 219.489 371.24 219.489 369.2C219.489 367.112 218.073 365.696 214.017 365.696V364.016C217.641 364.016 218.889 362.552 218.889 360.656C218.889 358.976 217.737 357.872 215.913 357.872C214.497 357.872 213.249 358.568 212.265 359.576L211.089 358.184C212.409 356.96 213.969 356.072 216.009 356.072C218.961 356.072 221.121 357.704 221.121 360.488C221.121 362.624 219.849 364.04 218.001 364.736V364.832C220.065 365.312 221.721 366.896 221.721 369.296C221.721 372.44 219.201 374.312 216.081 374.312ZM228.289 374C228.577 367.328 229.801 363.08 233.233 358.28H224.713V356.384H235.729V357.728C231.601 363.008 230.833 367.112 230.569 374H228.289ZM242.25 367.184C239.85 367.184 238.266 365.144 238.266 361.592C238.266 358.064 239.85 356.072 242.25 356.072C244.674 356.072 246.258 358.064 246.258 361.592C246.258 365.144 244.674 367.184 242.25 367.184ZM242.25 365.816C243.642 365.816 244.602 364.4 244.602 361.592C244.602 358.784 243.642 357.416 242.25 357.416C240.882 357.416 239.922 358.784 239.922 361.592C239.922 364.4 240.882 365.816 242.25 365.816ZM242.778 374.312L252.474 356.072H253.962L244.242 374.312H242.778ZM254.514 374.312C252.114 374.312 250.506 372.296 250.506 368.744C250.506 365.216 252.114 363.224 254.514 363.224C256.914 363.224 258.498 365.216 258.498 368.744C258.498 372.296 256.914 374.312 254.514 374.312ZM254.514 372.968C255.882 372.968 256.842 371.552 256.842 368.744C256.842 365.936 255.882 364.568 254.514 364.568C253.122 364.568 252.186 365.936 252.186 368.744C252.186 371.552 253.122 372.968 254.514 372.968Z" fill="#333333"/>
<path d="M46.76 61.4H52.16V56C52.16 55.136 52.232 53.72 52.28 52.808H52.184C51.752 53.672 51.272 54.536 50.768 55.4L46.76 61.4ZM52.16 68V63.152H44.48V61.712L51.8 50.384H54.224V61.4H56.552V63.152H54.224V68H52.16ZM61.1285 68.312C60.2645 68.312 59.5445 67.64 59.5445 66.656C59.5445 65.648 60.2645 64.952 61.1285 64.952C61.9925 64.952 62.7125 65.648 62.7125 66.656C62.7125 67.64 61.9925 68.312 61.1285 68.312ZM71.9842 58.712C70.8802 58.712 69.4642 59.36 68.3842 60.968C68.6482 64.616 69.9682 66.608 72.1762 66.608C73.8562 66.608 75.1762 65 75.1762 62.6C75.1762 60.224 74.1202 58.712 71.9842 58.712ZM72.1762 68.312C68.7922 68.312 66.2962 65.408 66.2962 59.6C66.2962 52.712 69.3922 50.072 72.8002 50.072C74.6242 50.072 75.9442 50.84 76.9042 51.872L75.7042 53.24C75.0082 52.4 73.9522 51.896 72.8722 51.896C70.4722 51.896 68.4322 53.744 68.3362 59.216C69.4162 57.896 70.9522 57.08 72.3442 57.08C75.3202 57.08 77.2162 58.928 77.2162 62.6C77.2162 66.008 74.9122 68.312 72.1762 68.312ZM81.5047 61.4H86.9047V56C86.9047 55.136 86.9767 53.72 87.0247 52.808H86.9287C86.4967 53.672 86.0167 54.536 85.5127 55.4L81.5047 61.4ZM86.9047 68V63.152H79.2247V61.712L86.5447 50.384H88.9687V61.4H91.2967V63.152H88.9687V68H86.9047ZM97.4572 61.184C95.0572 61.184 93.4732 59.144 93.4732 55.592C93.4732 52.064 95.0572 50.072 97.4572 50.072C99.8812 50.072 101.465 52.064 101.465 55.592C101.465 59.144 99.8812 61.184 97.4572 61.184ZM97.4572 59.816C98.8492 59.816 99.8092 58.4 99.8092 55.592C99.8092 52.784 98.8492 51.416 97.4572 51.416C96.0892 51.416 95.1292 52.784 95.1292 55.592C95.1292 58.4 96.0892 59.816 97.4572 59.816ZM97.9852 68.312L107.681 50.072H109.169L99.4492 68.312H97.9852ZM109.721 68.312C107.321 68.312 105.713 66.296 105.713 62.744C105.713 59.216 107.321 57.224 109.721 57.224C112.121 57.224 113.705 59.216 113.705 62.744C113.705 66.296 112.121 68.312 109.721 68.312ZM109.721 66.968C111.089 66.968 112.049 65.552 112.049 62.744C112.049 59.936 111.089 58.568 109.721 58.568C108.329 58.568 107.393 59.936 107.393 62.744C107.393 65.552 108.329 66.968 109.721 66.968Z" fill="#333333"/>
<path d="M88.336 239.312C85.576 239.312 83.848 238.16 82.696 236.912L83.8 235.472C84.832 236.552 86.176 237.488 88.168 237.488C90.256 237.488 91.744 236.24 91.744 234.2C91.744 232.112 90.328 230.696 86.272 230.696V229.016C89.896 229.016 91.144 227.552 91.144 225.656C91.144 223.976 89.992 222.872 88.168 222.872C86.752 222.872 85.504 223.568 84.52 224.576L83.344 223.184C84.664 221.96 86.224 221.072 88.264 221.072C91.216 221.072 93.376 222.704 93.376 225.488C93.376 227.624 92.104 229.04 90.256 229.736V229.832C92.32 230.312 93.976 231.896 93.976 234.296C93.976 237.44 91.456 239.312 88.336 239.312ZM102.465 239.312C99.1045 239.312 96.9685 236.264 96.9685 230.144C96.9685 224.024 99.1045 221.072 102.465 221.072C105.801 221.072 107.937 224.048 107.937 230.144C107.937 236.264 105.801 239.312 102.465 239.312ZM102.465 237.56C104.457 237.56 105.801 235.328 105.801 230.144C105.801 225.008 104.457 222.824 102.465 222.824C100.448 222.824 99.1045 225.008 99.1045 230.144C99.1045 235.328 100.448 237.56 102.465 237.56ZM112.921 239.312C112.057 239.312 111.337 238.64 111.337 237.656C111.337 236.648 112.057 235.952 112.921 235.952C113.785 235.952 114.505 236.648 114.505 237.656C114.505 238.64 113.785 239.312 112.921 239.312ZM123.009 239.312C120.273 239.312 118.593 238.16 117.417 236.984L118.497 235.544C119.505 236.552 120.777 237.488 122.817 237.488C124.881 237.488 126.561 235.904 126.561 233.336C126.561 230.816 125.121 229.328 122.913 229.328C121.737 229.328 120.993 229.688 119.985 230.36L118.809 229.64L119.361 221.384H127.929V223.28H121.281L120.849 228.368C121.641 227.936 122.409 227.672 123.465 227.672C126.393 227.672 128.769 229.4 128.769 233.264C128.769 237.128 125.985 239.312 123.009 239.312ZM136.801 239.312C134.065 239.312 132.385 238.16 131.209 236.984L132.289 235.544C133.297 236.552 134.569 237.488 136.609 237.488C138.673 237.488 140.353 235.904 140.353 233.336C140.353 230.816 138.913 229.328 136.705 229.328C135.529 229.328 134.785 229.688 133.777 230.36L132.601 229.64L133.153 221.384H141.721V223.28H135.073L134.641 228.368C135.433 227.936 136.201 227.672 137.257 227.672C140.185 227.672 142.561 229.4 142.561 233.264C142.561 237.128 139.777 239.312 136.801 239.312ZM149.25 232.184C146.85 232.184 145.266 230.144 145.266 226.592C145.266 223.064 146.85 221.072 149.25 221.072C151.674 221.072 153.258 223.064 153.258 226.592C153.258 230.144 151.674 232.184 149.25 232.184ZM149.25 230.816C150.642 230.816 151.602 229.4 151.602 226.592C151.602 223.784 150.642 222.416 149.25 222.416C147.882 222.416 146.922 223.784 146.922 226.592C146.922 229.4 147.882 230.816 149.25 230.816ZM149.778 239.312L159.474 221.072H160.962L151.242 239.312H149.778ZM161.514 239.312C159.114 239.312 157.506 237.296 157.506 233.744C157.506 230.216 159.114 228.224 161.514 228.224C163.914 228.224 165.498 230.216 165.498 233.744C165.498 237.296 163.914 239.312 161.514 239.312ZM161.514 237.968C162.882 237.968 163.842 236.552 163.842 233.744C163.842 230.936 162.882 229.568 161.514 229.568C160.122 229.568 159.186 230.936 159.186 233.744C159.186 236.552 160.122 237.968 161.514 237.968Z" fill="#333333"/>
<path d="M297 62H229C226.791 62 225 63.7909 225 66V93" stroke="#333333"/>
<path d="M297 19H225C222.791 19 221 20.7909 221 23V93" stroke="#333333"/>
<path d="M139 58H199C201.209 58 203 59.7909 203 62V108" stroke="#333333"/>
<rect x="312" y="60" width="16" height="16" rx="4" fill="#FFE609"/>
<path d="M350.672 78.312C347.312 78.312 345.176 75.264 345.176 69.144C345.176 63.024 347.312 60.072 350.672 60.072C354.008 60.072 356.144 63.048 356.144 69.144C356.144 75.264 354.008 78.312 350.672 78.312ZM350.672 76.56C352.664 76.56 354.008 74.328 354.008 69.144C354.008 64.008 352.664 61.824 350.672 61.824C348.656 61.824 347.312 64.008 347.312 69.144C347.312 74.328 348.656 76.56 350.672 76.56ZM361.128 78.312C360.264 78.312 359.544 77.64 359.544 76.656C359.544 75.648 360.264 74.952 361.128 74.952C361.992 74.952 362.712 75.648 362.712 76.656C362.712 77.64 361.992 78.312 361.128 78.312ZM371.624 78.312C368.264 78.312 366.128 75.264 366.128 69.144C366.128 63.024 368.264 60.072 371.624 60.072C374.96 60.072 377.096 63.048 377.096 69.144C377.096 75.264 374.96 78.312 371.624 78.312ZM371.624 76.56C373.616 76.56 374.96 74.328 374.96 69.144C374.96 64.008 373.616 61.824 371.624 61.824C369.608 61.824 368.264 64.008 368.264 69.144C368.264 74.328 369.608 76.56 371.624 76.56ZM383.497 78C383.785 71.328 385.009 67.08 388.441 62.28H379.921V60.384H390.937V61.728C386.809 67.008 386.041 71.112 385.777 78H383.497ZM397.457 71.184C395.057 71.184 393.473 69.144 393.473 65.592C393.473 62.064 395.057 60.072 397.457 60.072C399.881 60.072 401.465 62.064 401.465 65.592C401.465 69.144 399.881 71.184 397.457 71.184ZM397.457 69.816C398.849 69.816 399.809 68.4 399.809 65.592C399.809 62.784 398.849 61.416 397.457 61.416C396.089 61.416 395.129 62.784 395.129 65.592C395.129 68.4 396.089 69.816 397.457 69.816ZM397.985 78.312L407.681 60.072H409.169L399.449 78.312H397.985ZM409.721 78.312C407.321 78.312 405.713 76.296 405.713 72.744C405.713 69.216 407.321 67.224 409.721 67.224C412.121 67.224 413.705 69.216 413.705 72.744C413.705 76.296 412.121 78.312 409.721 78.312ZM409.721 76.968C411.089 76.968 412.049 75.552 412.049 72.744C412.049 69.936 411.089 68.568 409.721 68.568C408.329 68.568 407.393 69.936 407.393 72.744C407.393 75.552 408.329 76.968 409.721 76.968Z" fill="#333333"/>
<rect x="312" y="12.5" width="16" height="16" rx="4" fill="#FB8500"/>
<path d="M350.672 30.812C347.312 30.812 345.176 27.764 345.176 21.644C345.176 15.524 347.312 12.572 350.672 12.572C354.008 12.572 356.144 15.548 356.144 21.644C356.144 27.764 354.008 30.812 350.672 30.812ZM350.672 29.06C352.664 29.06 354.008 26.828 354.008 21.644C354.008 16.508 352.664 14.324 350.672 14.324C348.656 14.324 347.312 16.508 347.312 21.644C347.312 26.828 348.656 29.06 350.672 29.06ZM361.128 30.812C360.264 30.812 359.544 30.14 359.544 29.156C359.544 28.148 360.264 27.452 361.128 27.452C361.992 27.452 362.712 28.148 362.712 29.156C362.712 30.14 361.992 30.812 361.128 30.812ZM371.624 30.812C368.264 30.812 366.128 27.764 366.128 21.644C366.128 15.524 368.264 12.572 371.624 12.572C374.96 12.572 377.096 15.548 377.096 21.644C377.096 27.764 374.96 30.812 371.624 30.812ZM371.624 29.06C373.616 29.06 374.96 26.828 374.96 21.644C374.96 16.508 373.616 14.324 371.624 14.324C369.608 14.324 368.264 16.508 368.264 21.644C368.264 26.828 369.608 29.06 371.624 29.06ZM381.865 18.284C381.865 20.66 382.921 22.196 385.009 22.196C386.209 22.196 387.553 21.5 388.681 19.844C388.441 16.22 387.097 14.3 384.841 14.3C383.161 14.3 381.865 15.884 381.865 18.284ZM384.361 30.812C382.465 30.812 381.121 30.044 380.137 29.012L381.361 27.644C382.081 28.484 383.161 28.988 384.289 28.988C386.569 28.988 388.537 27.116 388.705 21.668C387.625 22.988 386.113 23.828 384.649 23.828C381.721 23.828 379.801 21.932 379.801 18.284C379.801 14.876 382.105 12.572 384.841 12.572C388.225 12.572 390.745 15.356 390.745 20.948C390.745 28.076 387.673 30.812 384.361 30.812ZM397.457 23.684C395.057 23.684 393.473 21.644 393.473 18.092C393.473 14.564 395.057 12.572 397.457 12.572C399.881 12.572 401.465 14.564 401.465 18.092C401.465 21.644 399.881 23.684 397.457 23.684ZM397.457 22.316C398.849 22.316 399.809 20.9 399.809 18.092C399.809 15.284 398.849 13.916 397.457 13.916C396.089 13.916 395.129 15.284 395.129 18.092C395.129 20.9 396.089 22.316 397.457 22.316ZM397.985 30.812L407.681 12.572H409.169L399.449 30.812H397.985ZM409.721 30.812C407.321 30.812 405.713 28.796 405.713 25.244C405.713 21.716 407.321 19.724 409.721 19.724C412.121 19.724 413.705 21.716 413.705 25.244C413.705 28.796 412.121 30.812 409.721 30.812ZM409.721 29.468C411.089 29.468 412.049 28.052 412.049 25.244C412.049 22.436 411.089 21.068 409.721 21.068C408.329 21.068 407.393 22.436 407.393 25.244C407.393 28.052 408.329 29.468 409.721 29.468Z" fill="#333333"/>
</svg>
