<svg width="420" height="400" viewBox="0 0 420 400" fill="none" xmlns="http://www.w3.org/2000/svg">
<path d="M200.304 81.6326C225.881 81.6326 251.035 88.1653 273.385 100.612C295.735 113.059 314.542 131.009 328.025 152.763C341.509 174.516 349.223 199.354 350.438 224.924C351.653 250.495 346.328 275.953 334.968 298.889C323.608 321.825 306.587 341.48 285.518 355.993C264.449 370.507 240.028 379.399 214.566 381.828C189.105 384.258 163.445 380.143 140.016 369.875C116.586 359.607 96.1627 343.524 80.6776 323.15L176.379 250.286C179.476 254.361 183.56 257.577 188.246 259.631C192.932 261.685 198.064 262.507 203.156 262.022C208.249 261.536 213.133 259.757 217.347 256.855C221.561 253.952 224.965 250.021 227.237 245.434C229.509 240.847 230.574 235.755 230.331 230.641C230.088 225.527 228.545 220.559 225.848 216.208C223.152 211.858 219.39 208.268 214.92 205.778C210.45 203.289 205.419 201.982 200.304 201.982L200.304 81.6326Z" fill="#023047"/>
<path d="M80.6776 323.15C66.0512 303.905 56.2752 281.415 52.1777 257.585C48.0802 233.756 49.782 209.289 57.139 186.257C64.496 163.226 77.2914 142.309 94.4409 125.278C111.59 108.247 132.589 95.6053 155.657 88.4228L191.375 203.34C186.761 204.777 182.561 207.305 179.131 210.712C175.701 214.118 173.142 218.301 171.671 222.907C170.2 227.514 169.859 232.407 170.679 237.173C171.498 241.939 173.453 246.437 176.379 250.286L80.6776 323.15Z" fill="#219EBC"/>
<path d="M155.708 88.407C169.681 84.0616 184.214 81.7818 198.845 81.6397L200.012 201.984C197.086 202.012 194.179 202.468 191.385 203.337L155.708 88.407Z" fill="#8ECAE6"/>
<path d="M198.793 81.6402C199.076 81.6373 199.36 81.6353 199.643 81.634L200.172 201.983C200.115 201.983 200.058 201.983 200.002 201.984L198.793 81.6402Z" fill="#FB8500"/>
<path d="M223.84 302.555C220.456 302.555 217.936 299.651 217.936 293.843C217.936 286.955 221.032 284.315 224.44 284.315C226.264 284.315 227.608 285.083 228.568 286.115L227.344 287.459C226.672 286.643 225.592 286.139 224.536 286.139C222.064 286.139 220 288.083 220 293.843C220 298.355 221.368 300.827 223.84 300.827C225.52 300.827 226.816 299.219 226.816 296.843C226.816 294.443 225.76 292.931 223.648 292.931C222.52 292.931 221.104 293.603 219.928 295.355L219.856 293.603C220.936 292.187 222.568 291.323 223.984 291.323C226.96 291.323 228.88 293.147 228.88 296.843C228.88 300.251 226.552 302.555 223.84 302.555ZM238.544 302.219V290.243C238.544 289.355 238.616 287.939 238.688 287.027H238.568C238.136 287.891 237.656 288.779 237.176 289.643L233.168 295.643H242.96V297.371H230.864V295.931L238.184 284.627H240.608V302.219H238.544ZM247.513 302.555C246.649 302.555 245.953 301.859 245.953 300.875C245.953 299.867 246.649 299.195 247.513 299.195C248.401 299.195 249.121 299.867 249.121 300.875C249.121 301.859 248.401 302.555 247.513 302.555ZM258.585 302.555C255.201 302.555 252.681 299.651 252.681 293.843C252.681 286.955 255.777 284.315 259.185 284.315C261.009 284.315 262.353 285.083 263.313 286.115L262.089 287.459C261.417 286.643 260.337 286.139 259.281 286.139C256.809 286.139 254.745 288.083 254.745 293.843C254.745 298.355 256.113 300.827 258.585 300.827C260.265 300.827 261.561 299.219 261.561 296.843C261.561 294.443 260.505 292.931 258.393 292.931C257.265 292.931 255.849 293.603 254.673 295.355L254.601 293.603C255.681 292.187 257.313 291.323 258.729 291.323C261.705 291.323 263.625 293.147 263.625 296.843C263.625 300.251 261.297 302.555 258.585 302.555ZM271.417 302.555C268.681 302.555 267.001 301.403 265.801 300.203L266.905 298.763C267.889 299.795 269.185 300.731 271.201 300.731C273.289 300.731 274.945 299.123 274.945 296.579C274.945 294.059 273.505 292.547 271.321 292.547C270.145 292.547 269.401 292.931 268.393 293.603L267.217 292.859L267.769 284.627H276.337V286.499H269.689L269.233 291.587C270.025 291.155 270.817 290.891 271.873 290.891C274.801 290.891 277.177 292.619 277.177 296.507C277.177 300.347 274.369 302.555 271.417 302.555ZM283.866 295.403C281.442 295.403 279.858 293.387 279.858 289.835C279.858 286.307 281.442 284.315 283.866 284.315C286.29 284.315 287.874 286.307 287.874 289.835C287.874 293.387 286.29 295.403 283.866 295.403ZM283.866 294.059C285.258 294.059 286.194 292.619 286.194 289.835C286.194 287.027 285.258 285.659 283.866 285.659C282.474 285.659 281.514 287.027 281.514 289.835C281.514 292.619 282.474 294.059 283.866 294.059ZM284.37 302.555L294.066 284.315H295.554L285.858 302.555H284.37ZM296.13 302.555C293.706 302.555 292.122 300.539 292.122 296.963C292.122 293.459 293.706 291.443 296.13 291.443C298.506 291.443 300.114 293.459 300.114 296.963C300.114 300.539 298.506 302.555 296.13 302.555ZM296.13 301.211C297.498 301.211 298.458 299.771 298.458 296.963C298.458 294.155 297.498 292.811 296.13 292.811C294.738 292.811 293.778 294.155 293.778 296.963C293.778 299.771 294.738 301.211 296.13 301.211Z" fill="white"/>
<path d="M51.9617 62.3179V50.3419C51.9617 49.4539 52.0337 48.0379 52.1057 47.1259H51.9857C51.5537 47.9899 51.0737 48.8779 50.5937 49.7419L46.5857 55.7419H56.3777V57.4699H44.2817V56.0299L51.6017 44.7259H54.0257V62.3179H51.9617ZM60.9302 62.6539C60.0662 62.6539 59.3702 61.9579 59.3702 60.9739C59.3702 59.9659 60.0662 59.2939 60.9302 59.2939C61.8182 59.2939 62.5382 59.9659 62.5382 60.9739C62.5382 61.9579 61.8182 62.6539 60.9302 62.6539ZM72.0019 62.6539C68.6179 62.6539 66.0979 59.7499 66.0979 53.9419C66.0979 47.0539 69.1939 44.4139 72.6019 44.4139C74.4259 44.4139 75.7699 45.1819 76.7299 46.2139L75.5059 47.5579C74.8339 46.7419 73.7539 46.2379 72.6979 46.2379C70.2259 46.2379 68.1619 48.1819 68.1619 53.9419C68.1619 58.4539 69.5299 60.9259 72.0019 60.9259C73.6819 60.9259 74.9779 59.3179 74.9779 56.9419C74.9779 54.5419 73.9219 53.0299 71.8099 53.0299C70.6819 53.0299 69.2659 53.7019 68.0899 55.4539L68.0179 53.7019C69.0979 52.2859 70.7299 51.4219 72.1459 51.4219C75.1219 51.4219 77.0419 53.2459 77.0419 56.9419C77.0419 60.3499 74.7139 62.6539 72.0019 62.6539ZM86.7064 62.3179V50.3419C86.7064 49.4539 86.7784 48.0379 86.8504 47.1259H86.7304C86.2984 47.9899 85.8184 48.8779 85.3384 49.7419L81.3304 55.7419H91.1224V57.4699H79.0264V56.0299L86.3464 44.7259H88.7704V62.3179H86.7064ZM97.2829 55.5019C94.8589 55.5019 93.2749 53.4859 93.2749 49.9339C93.2749 46.4059 94.8589 44.4139 97.2829 44.4139C99.7069 44.4139 101.291 46.4059 101.291 49.9339C101.291 53.4859 99.7069 55.5019 97.2829 55.5019ZM97.2829 54.1579C98.6749 54.1579 99.6109 52.7179 99.6109 49.9339C99.6109 47.1259 98.6749 45.7579 97.2829 45.7579C95.8909 45.7579 94.9309 47.1259 94.9309 49.9339C94.9309 52.7179 95.8909 54.1579 97.2829 54.1579ZM97.7869 62.6539L107.483 44.4139H108.971L99.2749 62.6539H97.7869ZM109.547 62.6539C107.123 62.6539 105.539 60.6379 105.539 57.0619C105.539 53.5579 107.123 51.5419 109.547 51.5419C111.923 51.5419 113.531 53.5579 113.531 57.0619C113.531 60.6379 111.923 62.6539 109.547 62.6539ZM109.547 61.3099C110.915 61.3099 111.875 59.8699 111.875 57.0619C111.875 54.2539 110.915 52.9099 109.547 52.9099C108.155 52.9099 107.195 54.2539 107.195 57.0619C107.195 59.8699 108.155 61.3099 109.547 61.3099Z" fill="#0A0A0A"/>
<path d="M83.1104 210.426C80.3504 210.426 78.6464 209.274 77.4944 208.002L78.5984 206.562C79.6304 207.642 80.9504 208.602 82.9664 208.602C85.0544 208.602 86.5424 207.33 86.5424 205.314C86.5424 203.202 85.1264 201.81 81.0704 201.81V200.106C84.6944 200.106 85.9184 198.666 85.9184 196.746C85.9184 195.066 84.7904 193.962 82.9664 193.962C81.5504 193.962 80.3024 194.682 79.3184 195.69L78.1424 194.274C79.4624 193.074 81.0224 192.186 83.0384 192.186C85.9904 192.186 88.1504 193.794 88.1504 196.602C88.1504 198.738 86.9024 200.154 85.0304 200.826V200.922C87.0944 201.426 88.7744 202.986 88.7744 205.41C88.7744 208.53 86.2544 210.426 83.1104 210.426ZM97.2629 210.426C93.9029 210.426 91.7669 207.378 91.7669 201.234C91.7669 195.138 93.9029 192.186 97.2629 192.186C100.575 192.186 102.711 195.138 102.711 201.234C102.711 207.378 100.575 210.426 97.2629 210.426ZM97.2629 208.65C99.2549 208.65 100.599 206.418 100.599 201.234C100.599 196.122 99.2549 193.938 97.2629 193.938C95.2469 193.938 93.8789 196.122 93.8789 201.234C93.8789 206.418 95.2469 208.65 97.2629 208.65ZM107.695 210.426C106.831 210.426 106.135 209.73 106.135 208.746C106.135 207.738 106.831 207.066 107.695 207.066C108.583 207.066 109.303 207.738 109.303 208.746C109.303 209.73 108.583 210.426 107.695 210.426ZM117.807 210.426C115.071 210.426 113.391 209.274 112.191 208.074L113.295 206.634C114.279 207.666 115.575 208.602 117.591 208.602C119.679 208.602 121.335 206.994 121.335 204.45C121.335 201.93 119.895 200.418 117.711 200.418C116.535 200.418 115.791 200.802 114.783 201.474L113.607 200.73L114.159 192.498H122.727V194.37H116.079L115.623 199.458C116.415 199.026 117.207 198.762 118.263 198.762C121.191 198.762 123.567 200.49 123.567 204.378C123.567 208.218 120.759 210.426 117.807 210.426ZM131.6 210.426C128.864 210.426 127.184 209.274 125.984 208.074L127.088 206.634C128.072 207.666 129.368 208.602 131.384 208.602C133.472 208.602 135.128 206.994 135.128 204.45C135.128 201.93 133.688 200.418 131.504 200.418C130.328 200.418 129.584 200.802 128.576 201.474L127.4 200.73L127.952 192.498H136.52V194.37H129.872L129.416 199.458C130.208 199.026 131 198.762 132.056 198.762C134.984 198.762 137.36 200.49 137.36 204.378C137.36 208.218 134.552 210.426 131.6 210.426ZM144.048 203.274C141.624 203.274 140.04 201.258 140.04 197.706C140.04 194.178 141.624 192.186 144.048 192.186C146.472 192.186 148.056 194.178 148.056 197.706C148.056 201.258 146.472 203.274 144.048 203.274ZM144.048 201.93C145.44 201.93 146.376 200.49 146.376 197.706C146.376 194.898 145.44 193.53 144.048 193.53C142.656 193.53 141.696 194.898 141.696 197.706C141.696 200.49 142.656 201.93 144.048 201.93ZM144.552 210.426L154.248 192.186H155.736L146.04 210.426H144.552ZM156.312 210.426C153.888 210.426 152.304 208.41 152.304 204.834C152.304 201.33 153.888 199.314 156.312 199.314C158.688 199.314 160.296 201.33 160.296 204.834C160.296 208.41 158.688 210.426 156.312 210.426ZM156.312 209.082C157.68 209.082 158.64 207.642 158.64 204.834C158.64 202.026 157.68 200.682 156.312 200.682C154.92 200.682 153.96 202.026 153.96 204.834C153.96 207.642 154.92 209.082 156.312 209.082Z" fill="#0A0A0A"/>
<path d="M263.222 53.6443H204.304C202.095 53.6443 200.304 55.4351 200.304 57.6443V80.4664" stroke="#858585"/>
<path d="M263.222 16.3264H200.809C198.599 16.3264 196.809 18.1173 196.809 20.3264V80.4664" stroke="#858585"/>
<path d="M125.735 50.1458H177.662C179.871 50.1458 181.662 51.9366 181.662 54.1458V93.2944" stroke="#858585"/>
<rect x="276.039" y="50.3091" width="16" height="16" rx="4" fill="#FFE609"/>
<path d="M314.711 68.6451C311.351 68.6451 309.215 65.5971 309.215 59.4531C309.215 53.3571 311.351 50.4051 314.711 50.4051C318.023 50.4051 320.159 53.3571 320.159 59.4531C320.159 65.5971 318.023 68.6451 314.711 68.6451ZM314.711 66.8691C316.703 66.8691 318.047 64.6371 318.047 59.4531C318.047 54.3411 316.703 52.1571 314.711 52.1571C312.695 52.1571 311.327 54.3411 311.327 59.4531C311.327 64.6371 312.695 66.8691 314.711 66.8691ZM325.143 68.6451C324.279 68.6451 323.583 67.9491 323.583 66.9651C323.583 65.9571 324.279 65.2851 325.143 65.2851C326.031 65.2851 326.751 65.9571 326.751 66.9651C326.751 67.9491 326.031 68.6451 325.143 68.6451ZM335.663 68.6451C332.303 68.6451 330.167 65.5971 330.167 59.4531C330.167 53.3571 332.303 50.4051 335.663 50.4051C338.975 50.4051 341.111 53.3571 341.111 59.4531C341.111 65.5971 338.975 68.6451 335.663 68.6451ZM335.663 66.8691C337.655 66.8691 338.999 64.6371 338.999 59.4531C338.999 54.3411 337.655 52.1571 335.663 52.1571C333.647 52.1571 332.279 54.3411 332.279 59.4531C332.279 64.6371 333.647 66.8691 335.663 66.8691ZM347.511 68.3091C347.823 61.6611 349.023 57.3891 352.479 52.5891H343.959V50.7171H354.951V52.0371C350.823 57.3411 350.079 61.4451 349.791 68.3091H347.511ZM361.496 61.4931C359.072 61.4931 357.488 59.4771 357.488 55.9251C357.488 52.3971 359.072 50.4051 361.496 50.4051C363.92 50.4051 365.504 52.3971 365.504 55.9251C365.504 59.4771 363.92 61.4931 361.496 61.4931ZM361.496 60.1491C362.888 60.1491 363.824 58.7091 363.824 55.9251C363.824 53.1171 362.888 51.7491 361.496 51.7491C360.104 51.7491 359.144 53.1171 359.144 55.9251C359.144 58.7091 360.104 60.1491 361.496 60.1491ZM362 68.6451L371.696 50.4051H373.184L363.488 68.6451H362ZM373.76 68.6451C371.336 68.6451 369.752 66.6291 369.752 63.0531C369.752 59.5491 371.336 57.5331 373.76 57.5331C376.136 57.5331 377.744 59.5491 377.744 63.0531C377.744 66.6291 376.136 68.6451 373.76 68.6451ZM373.76 67.3011C375.128 67.3011 376.088 65.8611 376.088 63.0531C376.088 60.2451 375.128 58.9011 373.76 58.9011C372.368 58.9011 371.408 60.2451 371.408 63.0531C371.408 65.8611 372.368 67.3011 373.76 67.3011Z" fill="#0A0A0A"/>
<rect x="276.039" y="9.49268" width="16" height="16" rx="4" fill="#FB8500"/>
<path d="M314.711 27.8287C311.351 27.8287 309.215 24.7807 309.215 18.6367C309.215 12.5407 311.351 9.58867 314.711 9.58867C318.023 9.58867 320.159 12.5407 320.159 18.6367C320.159 24.7807 318.023 27.8287 314.711 27.8287ZM314.711 26.0527C316.703 26.0527 318.047 23.8207 318.047 18.6367C318.047 13.5247 316.703 11.3407 314.711 11.3407C312.695 11.3407 311.327 13.5247 311.327 18.6367C311.327 23.8207 312.695 26.0527 314.711 26.0527ZM325.143 27.8287C324.279 27.8287 323.583 27.1327 323.583 26.1487C323.583 25.1407 324.279 24.4687 325.143 24.4687C326.031 24.4687 326.751 25.1407 326.751 26.1487C326.751 27.1327 326.031 27.8287 325.143 27.8287ZM335.663 27.8287C332.303 27.8287 330.167 24.7807 330.167 18.6367C330.167 12.5407 332.303 9.58867 335.663 9.58867C338.975 9.58867 341.111 12.5407 341.111 18.6367C341.111 24.7807 338.975 27.8287 335.663 27.8287ZM335.663 26.0527C337.655 26.0527 338.999 23.8207 338.999 18.6367C338.999 13.5247 337.655 11.3407 335.663 11.3407C333.647 11.3407 332.279 13.5247 332.279 18.6367C332.279 23.8207 333.647 26.0527 335.663 26.0527ZM348.399 27.8287C346.479 27.8287 345.135 27.0607 344.151 26.0287L345.375 24.6367C346.119 25.5007 347.199 26.0047 348.327 26.0047C350.679 26.0047 352.719 23.9647 352.719 17.9407C352.719 13.6207 351.351 11.2927 348.879 11.2927C347.199 11.2927 345.903 12.8767 345.903 15.3007C345.903 17.6527 346.959 19.2127 349.047 19.2127C350.223 19.2127 351.591 18.5167 352.743 16.7647L352.863 18.5167C351.759 19.9087 350.199 20.8207 348.687 20.8207C345.735 20.8207 343.839 18.9487 343.839 15.3007C343.839 11.8927 346.143 9.58867 348.879 9.58867C352.263 9.58867 354.783 12.3487 354.783 17.9407C354.783 25.0927 351.711 27.8287 348.399 27.8287ZM361.496 20.6767C359.072 20.6767 357.488 18.6607 357.488 15.1087C357.488 11.5807 359.072 9.58867 361.496 9.58867C363.92 9.58867 365.504 11.5807 365.504 15.1087C365.504 18.6607 363.92 20.6767 361.496 20.6767ZM361.496 19.3327C362.888 19.3327 363.824 17.8927 363.824 15.1087C363.824 12.3007 362.888 10.9327 361.496 10.9327C360.104 10.9327 359.144 12.3007 359.144 15.1087C359.144 17.8927 360.104 19.3327 361.496 19.3327ZM362 27.8287L371.696 9.58867H373.184L363.488 27.8287H362ZM373.76 27.8287C371.336 27.8287 369.752 25.8127 369.752 22.2367C369.752 18.7327 371.336 16.7167 373.76 16.7167C376.136 16.7167 377.744 18.7327 377.744 22.2367C377.744 25.8127 376.136 27.8287 373.76 27.8287ZM373.76 26.4847C375.128 26.4847 376.088 25.0447 376.088 22.2367C376.088 19.4287 375.128 18.0847 373.76 18.0847C372.368 18.0847 371.408 19.4287 371.408 22.2367C371.408 25.0447 372.368 26.4847 373.76 26.4847Z" fill="#0A0A0A"/>
</svg>
