<svg width="320" height="164" viewBox="0 0 320 164" fill="none" xmlns="http://www.w3.org/2000/svg">
<path opacity="0.4" fill-rule="evenodd" clip-rule="evenodd" d="M449 5.07811L429.834 2.60057C410.667 0.123029 372.334 -4.83205 334.001 12.5107C295.667 29.8535 257.334 69.4941 219 69.4941C180.667 69.4941 142.334 29.8535 104.001 19.9433C65.6673 10.0332 27.334 29.8535 -10.9994 39.7637C-49.3327 49.6738 -87.6665 49.6738 -106.833 49.6738H-126L-125.998 450.5H-106.831C-87.6642 450.5 -49.3309 450.5 -10.9976 450.5C27.3358 450.5 65.6691 450.5 104.002 450.5C142.336 450.5 180.669 450.5 219.002 450.5C257.336 450.5 295.669 450.5 334.002 450.5C372.336 450.5 410.669 450.5 429.836 450.5H449.002L449 5.07811Z" fill="#8ECAE6"/>
</svg>
