<svg width="320" height="154" viewBox="0 0 320 154" fill="none" xmlns="http://www.w3.org/2000/svg">
<path opacity="0.4" fill-rule="evenodd" clip-rule="evenodd" d="M-125.998 5.08374L-102.564 2.60345C-79.1311 0.123165 -32.2647 -4.83741 14.6018 12.5246C61.4683 29.8866 108.335 69.5713 155.201 69.5713C202.068 69.5713 248.934 29.8866 295.801 19.9655C342.667 10.0443 389.533 29.8866 436.4 39.8078C483.266 49.7289 530.134 49.7289 553.567 49.7289H577L576.997 451H553.564C530.131 451 483.264 451 436.398 451C389.531 451 342.665 451 295.798 451C248.932 451 202.065 451 155.199 451C108.332 451 61.4659 451 14.5994 451C-32.267 451 -79.1335 451 -102.567 451H-126L-125.998 5.08374Z" fill="#21BCB3"/>
</svg>
