<svg width="347" height="359" viewBox="0 0 347 359" fill="none" xmlns="http://www.w3.org/2000/svg">
<path d="M2.112 27.4695V25.6455H6.024V12.5415H2.88V11.1255C4.464 10.8615 5.592 10.4535 6.528 9.87748H8.208V25.6455H11.76V27.4695H2.112ZM17.1045 27.8055C16.2405 27.8055 15.5445 27.1095 15.5445 26.1255C15.5445 25.1175 16.2405 24.4455 17.1045 24.4455C17.9925 24.4455 18.7125 25.1175 18.7125 26.1255C18.7125 27.1095 17.9925 27.8055 17.1045 27.8055ZM27.2162 27.8055C24.4802 27.8055 22.8002 26.6535 21.6002 25.4535L22.7042 24.0135C23.6882 25.0455 24.9842 25.9815 27.0002 25.9815C29.0882 25.9815 30.7442 24.3735 30.7442 21.8295C30.7442 19.3095 29.3042 17.7975 27.1202 17.7975C25.9442 17.7975 25.2002 18.1815 24.1922 18.8535L23.0162 18.1095L23.5682 9.87748H32.1362V11.7495H25.4882L25.0322 16.8375C25.8242 16.4055 26.6162 16.1415 27.6722 16.1415C30.6002 16.1415 32.9762 17.8695 32.9762 21.7575C32.9762 25.5975 30.1682 27.8055 27.2162 27.8055ZM41.9687 27.8055C38.5847 27.8055 36.0647 24.9015 36.0647 19.0935C36.0647 12.2055 39.1607 9.56548 42.5687 9.56548C44.3927 9.56548 45.7367 10.3335 46.6967 11.3655L45.4727 12.7095C44.8007 11.8935 43.7207 11.3895 42.6647 11.3895C40.1927 11.3895 38.1287 13.3335 38.1287 19.0935C38.1287 23.6055 39.4967 26.0775 41.9687 26.0775C43.6487 26.0775 44.9447 24.4695 44.9447 22.0935C44.9447 19.6935 43.8887 18.1815 41.7767 18.1815C40.6487 18.1815 39.2327 18.8535 38.0567 20.6055L37.9847 18.8535C39.0647 17.4375 40.6967 16.5735 42.1127 16.5735C45.0887 16.5735 47.0087 18.3975 47.0087 22.0935C47.0087 25.5015 44.6807 27.8055 41.9687 27.8055ZM53.4572 20.6535C51.0332 20.6535 49.4492 18.6375 49.4492 15.0855C49.4492 11.5575 51.0332 9.56548 53.4572 9.56548C55.8812 9.56548 57.4652 11.5575 57.4652 15.0855C57.4652 18.6375 55.8812 20.6535 53.4572 20.6535ZM53.4572 19.3095C54.8492 19.3095 55.7852 17.8695 55.7852 15.0855C55.7852 12.2775 54.8492 10.9095 53.4572 10.9095C52.0652 10.9095 51.1052 12.2775 51.1052 15.0855C51.1052 17.8695 52.0652 19.3095 53.4572 19.3095ZM53.9612 27.8055L63.6572 9.56548H65.1452L55.4492 27.8055H53.9612ZM65.7212 27.8055C63.2972 27.8055 61.7132 25.7895 61.7132 22.2135C61.7132 18.7095 63.2972 16.6935 65.7212 16.6935C68.0972 16.6935 69.7052 18.7095 69.7052 22.2135C69.7052 25.7895 68.0972 27.8055 65.7212 27.8055ZM65.7212 26.4615C67.0892 26.4615 68.0492 25.0215 68.0492 22.2135C68.0492 19.4055 67.0892 18.0615 65.7212 18.0615C64.3292 18.0615 63.3692 19.4055 63.3692 22.2135C63.3692 25.0215 64.3292 26.4615 65.7212 26.4615Z" fill="#0A0A0A"/>
<path d="M93.0408 21.0103H178.673C180.883 21.0103 182.673 22.8011 182.673 25.0103V90.1021" stroke="#858585"/>
<path d="M190.143 45.2856C214.509 45.2856 238.541 50.9623 260.332 61.8656C282.123 72.7689 301.074 88.599 315.683 108.101C330.291 127.602 340.156 150.239 344.494 174.216C348.832 198.193 347.525 222.852 340.675 246.236C333.826 269.62 321.623 291.086 305.033 308.934C288.444 326.781 267.925 340.518 245.104 349.056C222.282 357.594 197.785 360.697 173.555 358.12C149.325 355.544 126.029 347.357 105.513 334.211L173.217 228.556C177.32 231.186 181.979 232.823 186.825 233.338C191.671 233.854 196.571 233.233 201.135 231.525C205.699 229.818 209.803 227.07 213.121 223.501C216.439 219.932 218.879 215.638 220.249 210.961C221.619 206.285 221.881 201.353 221.013 196.557C220.145 191.762 218.173 187.235 215.251 183.334C212.329 179.434 208.539 176.268 204.181 174.087C199.822 171.907 195.016 170.771 190.143 170.771V45.2856Z" fill="#023047"/>
<path d="M105.513 334.211C76.3739 315.538 54.2283 287.753 42.5256 255.183C30.8229 222.614 30.2202 187.088 40.8113 154.14L160.277 192.542C158.158 199.132 158.279 206.237 160.619 212.751C162.96 219.265 167.389 224.822 173.217 228.556L105.513 334.211Z" fill="#219EBC"/>
<path d="M40.8113 154.14C50.1718 125.021 67.8418 99.2731 91.6466 80.0664C115.451 60.8596 144.352 49.0318 174.793 46.0385L187.073 170.922C180.985 171.521 175.205 173.886 170.444 177.727C165.683 181.569 162.149 186.718 160.277 192.542L40.8113 154.14Z" fill="#8ECAE6"/>
<path d="M174.793 46.0385C179.894 45.5369 185.017 45.2856 190.143 45.2856V170.771C189.118 170.771 188.093 170.822 187.073 170.922L174.793 46.0385Z" fill="#FB8500"/>
<path d="M215.08 263.091C212.344 263.091 210.664 261.939 209.464 260.739L210.568 259.299C211.552 260.331 212.848 261.267 214.864 261.267C216.952 261.267 218.608 259.659 218.608 257.115C218.608 254.595 217.168 253.083 214.984 253.083C213.808 253.083 213.064 253.467 212.056 254.139L210.88 253.395L211.432 245.163H220V247.035H213.352L212.896 252.123C213.688 251.691 214.48 251.427 215.536 251.427C218.464 251.427 220.84 253.155 220.84 257.043C220.84 260.883 218.032 263.091 215.08 263.091ZM228.225 263.091C226.305 263.091 224.961 262.323 223.977 261.291L225.201 259.899C225.945 260.763 227.025 261.267 228.153 261.267C230.505 261.267 232.545 259.227 232.545 253.203C232.545 248.883 231.177 246.555 228.705 246.555C227.025 246.555 225.729 248.139 225.729 250.563C225.729 252.915 226.785 254.475 228.873 254.475C230.049 254.475 231.417 253.779 232.569 252.027L232.689 253.779C231.585 255.171 230.025 256.083 228.513 256.083C225.561 256.083 223.665 254.211 223.665 250.563C223.665 247.155 225.969 244.851 228.705 244.851C232.089 244.851 234.609 247.611 234.609 253.203C234.609 260.355 231.537 263.091 228.225 263.091ZM239.713 263.091C238.849 263.091 238.153 262.395 238.153 261.411C238.153 260.403 238.849 259.731 239.713 259.731C240.601 259.731 241.321 260.403 241.321 261.411C241.321 262.395 240.601 263.091 239.713 263.091ZM250.233 263.091C246.873 263.091 244.737 260.043 244.737 253.899C244.737 247.803 246.873 244.851 250.233 244.851C253.545 244.851 255.681 247.803 255.681 253.899C255.681 260.043 253.545 263.091 250.233 263.091ZM250.233 261.315C252.225 261.315 253.569 259.083 253.569 253.899C253.569 248.787 252.225 246.603 250.233 246.603C248.217 246.603 246.849 248.787 246.849 253.899C246.849 259.083 248.217 261.315 250.233 261.315ZM262.081 262.755C262.393 256.107 263.593 251.835 267.049 247.035H258.529V245.163H269.521V246.483C265.393 251.787 264.649 255.891 264.361 262.755H262.081ZM276.066 255.939C273.642 255.939 272.058 253.923 272.058 250.371C272.058 246.843 273.642 244.851 276.066 244.851C278.49 244.851 280.074 246.843 280.074 250.371C280.074 253.923 278.49 255.939 276.066 255.939ZM276.066 254.595C277.458 254.595 278.394 253.155 278.394 250.371C278.394 247.563 277.458 246.195 276.066 246.195C274.674 246.195 273.714 247.563 273.714 250.371C273.714 253.155 274.674 254.595 276.066 254.595ZM276.57 263.091L286.266 244.851H287.754L278.058 263.091H276.57ZM288.33 263.091C285.906 263.091 284.322 261.075 284.322 257.499C284.322 253.995 285.906 251.979 288.33 251.979C290.706 251.979 292.314 253.995 292.314 257.499C292.314 261.075 290.706 263.091 288.33 263.091ZM288.33 261.747C289.698 261.747 290.658 260.307 290.658 257.499C290.658 254.691 289.698 253.347 288.33 253.347C286.938 253.347 285.978 254.691 285.978 257.499C285.978 260.307 286.938 261.747 288.33 261.747Z" fill="white"/>
<path d="M45.5457 240.347V239.075C51.0657 234.251 53.5857 230.723 53.5857 227.723C53.5857 225.707 52.5537 224.219 50.3697 224.219C48.9297 224.219 47.6817 225.107 46.6977 226.259L45.4257 225.035C46.8657 223.475 48.4017 222.443 50.6337 222.443C53.7777 222.443 55.7457 224.483 55.7457 227.627C55.7457 231.155 52.9857 234.731 48.8337 238.643C49.7697 238.547 50.8257 238.475 51.7137 238.475H56.5857V240.347H45.5457ZM64.9542 240.683C61.5942 240.683 59.4582 237.635 59.4582 231.491C59.4582 225.395 61.5942 222.443 64.9542 222.443C68.2662 222.443 70.4022 225.395 70.4022 231.491C70.4022 237.635 68.2662 240.683 64.9542 240.683ZM64.9542 238.907C66.9462 238.907 68.2902 236.675 68.2902 231.491C68.2902 226.379 66.9462 224.195 64.9542 224.195C62.9382 224.195 61.5702 226.379 61.5702 231.491C61.5702 236.675 62.9382 238.907 64.9542 238.907ZM75.3867 240.683C74.5227 240.683 73.8267 239.987 73.8267 239.003C73.8267 237.995 74.5227 237.323 75.3867 237.323C76.2747 237.323 76.9947 237.995 76.9947 239.003C76.9947 239.987 76.2747 240.683 75.3867 240.683ZM85.9304 240.683C82.6904 240.683 80.3144 238.715 80.3144 236.003C80.3144 233.627 81.9464 231.995 83.5544 231.131V231.035C82.2584 230.147 81.1544 228.803 81.1544 226.955C81.1544 224.291 83.2424 222.515 86.0024 222.515C89.0024 222.515 90.8264 224.435 90.8264 227.123C90.8264 228.995 89.5304 230.555 88.4744 231.371V231.491C90.0104 232.379 91.4504 233.723 91.4504 236.123C91.4504 238.691 89.2184 240.683 85.9304 240.683ZM87.1304 230.819C88.3304 229.763 88.9544 228.563 88.9544 227.243C88.9544 225.515 87.8504 224.123 85.9544 224.123C84.3464 224.123 83.1704 225.275 83.1704 226.955C83.1704 229.067 85.0664 230.003 87.1304 230.819ZM85.9784 239.027C87.9944 239.027 89.3384 237.803 89.3384 236.051C89.3384 233.699 87.1784 232.811 84.7064 231.803C83.2664 232.715 82.2824 234.107 82.2824 235.787C82.2824 237.659 83.8664 239.027 85.9784 239.027ZM99.7229 240.683C96.4829 240.683 94.1069 238.715 94.1069 236.003C94.1069 233.627 95.7389 231.995 97.3469 231.131V231.035C96.0509 230.147 94.9469 228.803 94.9469 226.955C94.9469 224.291 97.0349 222.515 99.7949 222.515C102.795 222.515 104.619 224.435 104.619 227.123C104.619 228.995 103.323 230.555 102.267 231.371V231.491C103.803 232.379 105.243 233.723 105.243 236.123C105.243 238.691 103.011 240.683 99.7229 240.683ZM100.923 230.819C102.123 229.763 102.747 228.563 102.747 227.243C102.747 225.515 101.643 224.123 99.7469 224.123C98.1389 224.123 96.9629 225.275 96.9629 226.955C96.9629 229.067 98.8589 230.003 100.923 230.819ZM99.7709 239.027C101.787 239.027 103.131 237.803 103.131 236.051C103.131 233.699 100.971 232.811 98.4989 231.803C97.0589 232.715 96.0749 234.107 96.0749 235.787C96.0749 237.659 97.6589 239.027 99.7709 239.027ZM111.739 233.531C109.315 233.531 107.731 231.515 107.731 227.963C107.731 224.435 109.315 222.443 111.739 222.443C114.163 222.443 115.747 224.435 115.747 227.963C115.747 231.515 114.163 233.531 111.739 233.531ZM111.739 232.187C113.131 232.187 114.067 230.747 114.067 227.963C114.067 225.155 113.131 223.787 111.739 223.787C110.347 223.787 109.387 225.155 109.387 227.963C109.387 230.747 110.347 232.187 111.739 232.187ZM112.243 240.683L121.939 222.443H123.427L113.731 240.683H112.243ZM124.003 240.683C121.579 240.683 119.995 238.667 119.995 235.091C119.995 231.587 121.579 229.571 124.003 229.571C126.379 229.571 127.987 231.587 127.987 235.091C127.987 238.667 126.379 240.683 124.003 240.683ZM124.003 239.339C125.371 239.339 126.331 237.899 126.331 235.091C126.331 232.283 125.371 230.939 124.003 230.939C122.611 230.939 121.651 232.283 121.651 235.091C121.651 237.899 122.611 239.339 124.003 239.339Z" fill="#0A0A0A"/>
<path d="M67.1426 135.776V133.952H71.0546V120.848H67.9106V119.432C69.4946 119.168 70.6226 118.76 71.5586 118.184H73.2386V133.952H76.7906V135.776H67.1426ZM85.5191 136.112C82.2791 136.112 79.9031 134.144 79.9031 131.432C79.9031 129.056 81.5351 127.424 83.1431 126.56V126.464C81.8471 125.576 80.7431 124.232 80.7431 122.384C80.7431 119.72 82.8311 117.944 85.5911 117.944C88.5911 117.944 90.4151 119.864 90.4151 122.552C90.4151 124.424 89.1191 125.984 88.0631 126.8V126.92C89.5991 127.808 91.0391 129.152 91.0391 131.552C91.0391 134.12 88.8071 136.112 85.5191 136.112ZM86.7191 126.248C87.9191 125.192 88.5431 123.992 88.5431 122.672C88.5431 120.944 87.4391 119.552 85.5431 119.552C83.9351 119.552 82.7591 120.704 82.7591 122.384C82.7591 124.496 84.6551 125.432 86.7191 126.248ZM85.5671 134.456C87.5831 134.456 88.9271 133.232 88.9271 131.48C88.9271 129.128 86.7671 128.24 84.2951 127.232C82.8551 128.144 81.8711 129.536 81.8711 131.216C81.8711 133.088 83.4551 134.456 85.5671 134.456ZM95.9276 136.112C95.0636 136.112 94.3676 135.416 94.3676 134.432C94.3676 133.424 95.0636 132.752 95.9276 132.752C96.8156 132.752 97.5356 133.424 97.5356 134.432C97.5356 135.416 96.8156 136.112 95.9276 136.112ZM107.911 135.776V123.8C107.911 122.912 107.983 121.496 108.055 120.584H107.935C107.503 121.448 107.023 122.336 106.543 123.2L102.535 129.2H112.327V130.928H100.231V129.488L107.551 118.184H109.975V135.776H107.911ZM119.184 136.112C117.264 136.112 115.92 135.344 114.936 134.312L116.16 132.92C116.904 133.784 117.984 134.288 119.112 134.288C121.464 134.288 123.504 132.248 123.504 126.224C123.504 121.904 122.136 119.576 119.664 119.576C117.984 119.576 116.688 121.16 116.688 123.584C116.688 125.936 117.744 127.496 119.832 127.496C121.008 127.496 122.376 126.8 123.528 125.048L123.648 126.8C122.544 128.192 120.984 129.104 119.472 129.104C116.52 129.104 114.624 127.232 114.624 123.584C114.624 120.176 116.928 117.872 119.664 117.872C123.048 117.872 125.568 120.632 125.568 126.224C125.568 133.376 122.496 136.112 119.184 136.112ZM132.28 128.96C129.856 128.96 128.272 126.944 128.272 123.392C128.272 119.864 129.856 117.872 132.28 117.872C134.704 117.872 136.288 119.864 136.288 123.392C136.288 126.944 134.704 128.96 132.28 128.96ZM132.28 127.616C133.672 127.616 134.608 126.176 134.608 123.392C134.608 120.584 133.672 119.216 132.28 119.216C130.888 119.216 129.928 120.584 129.928 123.392C129.928 126.176 130.888 127.616 132.28 127.616ZM132.784 136.112L142.48 117.872H143.968L134.272 136.112H132.784ZM144.544 136.112C142.12 136.112 140.536 134.096 140.536 130.52C140.536 127.016 142.12 125 144.544 125C146.92 125 148.528 127.016 148.528 130.52C148.528 134.096 146.92 136.112 144.544 136.112ZM144.544 134.768C145.912 134.768 146.872 133.328 146.872 130.52C146.872 127.712 145.912 126.368 144.544 126.368C143.152 126.368 142.192 127.712 142.192 130.52C142.192 133.328 143.152 134.768 144.544 134.768Z" fill="#0A0A0A"/>
</svg>
