<svg width="300" height="150" viewBox="0 0 300 150" fill="none" xmlns="http://www.w3.org/2000/svg">
<path d="M296 150C298.209 150 300.006 148.208 299.947 146C298.925 107.668 283.252 71.1203 256.066 43.934C227.936 15.8035 189.782 3.00349e-06 150 0C110.218 -3.00349e-06 72.0645 15.8035 43.934 43.934C16.7477 71.1203 1.07474 107.668 0.0532783 146C-0.00556902 148.208 1.79086 150 4 150H26C28.2091 150 29.993 148.208 30.0666 146C31.0787 115.626 43.5874 86.707 65.1472 65.1472C87.6516 42.6428 118.174 30 150 30C181.826 30 212.348 42.6428 234.853 65.1472C256.413 86.707 268.921 115.626 269.933 146C270.007 148.208 271.791 150 274 150H296Z" fill="#C2C2C2"/>
<path d="M4 150C1.79086 150 -0.00558472 148.209 0.0533142 146C0.542358 127.665 4.39044 109.564 11.4181 92.5975C18.9563 74.3986 30.0052 57.8628 43.934 43.934C57.8628 30.0052 74.3987 18.9563 92.5975 11.4181C110.796 3.87986 130.302 -8.61039e-07 150 0C169.698 8.61039e-07 189.204 3.87987 207.403 11.4181C225.601 18.9563 242.137 30.0052 256.066 43.934C269.995 57.8628 281.044 74.3987 288.582 92.5975C295.61 109.564 299.458 127.665 299.947 146C300.006 148.209 298.209 150 296 150H274C271.791 150 270.007 148.209 269.933 146.001C269.453 131.606 266.385 117.404 260.866 104.078C254.835 89.5189 245.996 76.2902 234.853 65.1472C223.71 54.0042 210.481 45.165 195.922 39.1345C181.363 33.1039 165.759 30 150 30C134.241 30 118.637 33.1039 104.078 39.1345C89.5189 45.165 76.2902 54.0042 65.1472 65.1472C54.0042 76.2902 45.165 89.5189 39.1345 104.078C33.6145 117.404 30.5467 131.606 30.0667 146.001C29.993 148.209 28.2091 150 26 150H4Z" fill="#FB8500"/>
<path d="M103.321 140V135.716H109.045V118.868H104.221V115.592C106.885 115.088 108.721 114.404 110.413 113.324H114.337V135.716H119.341V140H103.321ZM132.188 140.504C126.752 140.504 123.152 135.752 123.152 126.572C123.152 117.356 126.752 112.856 132.188 112.856C137.624 112.856 141.188 117.392 141.188 126.572C141.188 135.752 137.624 140.504 132.188 140.504ZM132.188 136.364C134.492 136.364 136.184 134.06 136.184 126.572C136.184 119.12 134.492 116.96 132.188 116.96C129.884 116.96 128.156 119.12 128.156 126.572C128.156 134.06 129.884 136.364 132.188 136.364ZM153.388 140.504C147.952 140.504 144.352 135.752 144.352 126.572C144.352 117.356 147.952 112.856 153.388 112.856C158.824 112.856 162.388 117.392 162.388 126.572C162.388 135.752 158.824 140.504 153.388 140.504ZM153.388 136.364C155.692 136.364 157.384 134.06 157.384 126.572C157.384 119.12 155.692 116.96 153.388 116.96C151.084 116.96 149.356 119.12 149.356 126.572C149.356 134.06 151.084 136.364 153.388 136.364ZM171.599 129.74C167.783 129.74 165.119 126.608 165.119 121.244C165.119 115.916 167.783 112.856 171.599 112.856C175.415 112.856 178.115 115.916 178.115 121.244C178.115 126.608 175.415 129.74 171.599 129.74ZM171.599 126.752C173.147 126.752 174.371 125.168 174.371 121.244C174.371 117.32 173.147 115.844 171.599 115.844C170.051 115.844 168.863 117.32 168.863 121.244C168.863 125.168 170.051 126.752 171.599 126.752ZM172.499 140.504L186.971 112.856H190.103L175.631 140.504H172.499ZM190.967 140.504C187.187 140.504 184.487 137.336 184.487 132.008C184.487 126.644 187.187 123.584 190.967 123.584C194.747 123.584 197.483 126.644 197.483 132.008C197.483 137.336 194.747 140.504 190.967 140.504ZM190.967 137.48C192.515 137.48 193.739 135.932 193.739 132.008C193.739 128.084 192.515 126.572 190.967 126.572C189.419 126.572 188.231 128.084 188.231 132.008C188.231 135.932 189.419 137.48 190.967 137.48Z" fill="#333333"/>
</svg>
