<svg width="300" height="150" viewBox="0 0 300 150" fill="none" xmlns="http://www.w3.org/2000/svg">
<path d="M296 150C298.209 150 300.006 148.208 299.947 146C298.925 107.668 283.252 71.1203 256.066 43.934C227.936 15.8035 189.782 3.00349e-06 150 0C110.218 -3.00349e-06 72.0645 15.8035 43.934 43.934C16.7477 71.1203 1.07474 107.668 0.0532783 146C-0.00556902 148.208 1.79086 150 4 150H26C28.2091 150 29.993 148.208 30.0666 146C31.0787 115.626 43.5874 86.707 65.1472 65.1472C87.6516 42.6428 118.174 30 150 30C181.826 30 212.348 42.6428 234.853 65.1472C256.413 86.707 268.921 115.626 269.933 146C270.007 148.208 271.791 150 274 150H296Z" fill="#C2C2C2"/>
<path d="M4 150C1.79086 150 -0.0055542 148.208 0.0532837 146C1.04398 108.827 15.8156 73.2901 41.5784 46.343C68.264 18.4308 104.686 1.88558 143.264 0.151342C181.841 -1.5829 219.601 11.6275 248.683 37.0326C276.76 61.5593 294.661 95.6277 298.983 132.562C299.24 134.756 297.611 136.701 295.411 136.9L273.5 138.874C271.3 139.072 269.362 137.447 269.091 135.255C265.471 106.014 251.207 79.0714 228.947 59.6261C205.681 39.302 175.473 28.7337 144.611 30.1211C113.749 31.5085 84.6112 44.7447 63.2628 67.0744C42.8373 88.4387 31.0479 116.552 30.0666 146C29.993 148.208 28.2091 150 26 150H4Z" fill="#FB8500"/>
<path d="M89.716 121.748C89.716 124.88 91.192 126.356 93.496 126.356C94.972 126.356 96.664 125.528 97.888 123.476C97.42 118.652 95.584 116.852 93.316 116.852C91.336 116.852 89.716 118.472 89.716 121.748ZM92.596 140.504C89.284 140.504 86.872 139.1 85.288 137.48L88.096 134.276C89.068 135.356 90.688 136.184 92.272 136.184C95.26 136.184 97.708 133.916 97.96 127.256C96.556 129.056 94.288 130.136 92.488 130.136C88.06 130.136 84.856 127.4 84.856 121.748C84.856 116.276 88.672 112.856 93.244 112.856C98.284 112.856 102.82 116.816 102.82 126.068C102.82 136.148 97.888 140.504 92.596 140.504ZM111.311 140C111.779 130.748 113.327 124.844 118.403 117.788H106.415V113.324H124.127V116.564C117.935 124.124 117.107 129.56 116.675 140H111.311ZM131.646 140.504C129.774 140.504 128.37 138.992 128.37 137.048C128.37 135.068 129.774 133.592 131.646 133.592C133.554 133.592 134.958 135.068 134.958 137.048C134.958 138.992 133.554 140.504 131.646 140.504ZM140.473 140V135.716H146.197V118.868H141.373V115.592C144.037 115.088 145.873 114.404 147.565 113.324H151.489V135.716H156.493V140H140.473ZM164.625 129.056H170.853V123.62C170.853 122.072 170.961 119.66 171.033 118.076H170.889C170.241 119.516 169.521 120.992 168.765 122.432L164.625 129.056ZM170.853 140V133.088H159.477V129.488L169.413 113.324H175.785V129.056H178.917V133.088H175.785V140H170.853ZM187.552 129.74C183.736 129.74 181.072 126.608 181.072 121.244C181.072 115.916 183.736 112.856 187.552 112.856C191.368 112.856 194.068 115.916 194.068 121.244C194.068 126.608 191.368 129.74 187.552 129.74ZM187.552 126.752C189.1 126.752 190.324 125.168 190.324 121.244C190.324 117.32 189.1 115.844 187.552 115.844C186.004 115.844 184.816 117.32 184.816 121.244C184.816 125.168 186.004 126.752 187.552 126.752ZM188.452 140.504L202.924 112.856H206.056L191.584 140.504H188.452ZM206.92 140.504C203.14 140.504 200.44 137.336 200.44 132.008C200.44 126.644 203.14 123.584 206.92 123.584C210.7 123.584 213.436 126.644 213.436 132.008C213.436 137.336 210.7 140.504 206.92 140.504ZM206.92 137.48C208.468 137.48 209.692 135.932 209.692 132.008C209.692 128.084 208.468 126.572 206.92 126.572C205.372 126.572 204.184 128.084 204.184 132.008C204.184 135.932 205.372 137.48 206.92 137.48Z" fill="#333333"/>
</svg>
