<svg width="347" height="359" viewBox="0 0 347 359" fill="none" xmlns="http://www.w3.org/2000/svg">
<path d="M2.112 27.4697V25.6457H6.024V12.5177H2.904V11.1257C4.464 10.8377 5.592 10.4297 6.552 9.85373H8.232V25.6457H11.76V27.4697H2.112ZM17.1285 27.7817C16.2645 27.7817 15.5445 27.1097 15.5445 26.1257C15.5445 25.1177 16.2645 24.4217 17.1285 24.4217C17.9925 24.4217 18.7125 25.1177 18.7125 26.1257C18.7125 27.1097 17.9925 27.7817 17.1285 27.7817ZM27.2162 27.7817C24.4802 27.7817 22.8002 26.6297 21.6242 25.4537L22.7042 24.0137C23.7122 25.0217 24.9842 25.9577 27.0242 25.9577C29.0882 25.9577 30.7682 24.3737 30.7682 21.8057C30.7682 19.2857 29.3282 17.7977 27.1202 17.7977C25.9442 17.7977 25.2002 18.1577 24.1922 18.8297L23.0162 18.1097L23.5682 9.85373H32.1362V11.7497H25.4882L25.0562 16.8377C25.8482 16.4057 26.6162 16.1417 27.6722 16.1417C30.6002 16.1417 32.9762 17.8697 32.9762 21.7337C32.9762 25.5977 30.1922 27.7817 27.2162 27.7817ZM39.4967 27.4697C39.7847 20.7977 41.0087 16.5497 44.4407 11.7497H35.9207V9.85373H46.9367V11.1977C42.8087 16.4777 42.0407 20.5817 41.7767 27.4697H39.4967ZM53.4572 20.6537C51.0572 20.6537 49.4732 18.6137 49.4732 15.0617C49.4732 11.5337 51.0572 9.54173 53.4572 9.54173C55.8812 9.54173 57.4652 11.5337 57.4652 15.0617C57.4652 18.6137 55.8812 20.6537 53.4572 20.6537ZM53.4572 19.2857C54.8492 19.2857 55.8092 17.8697 55.8092 15.0617C55.8092 12.2537 54.8492 10.8857 53.4572 10.8857C52.0892 10.8857 51.1292 12.2537 51.1292 15.0617C51.1292 17.8697 52.0892 19.2857 53.4572 19.2857ZM53.9852 27.7817L63.6812 9.54173H65.1692L55.4492 27.7817H53.9852ZM65.7212 27.7817C63.3212 27.7817 61.7132 25.7657 61.7132 22.2137C61.7132 18.6857 63.3212 16.6937 65.7212 16.6937C68.1212 16.6937 69.7052 18.6857 69.7052 22.2137C69.7052 25.7657 68.1212 27.7817 65.7212 27.7817ZM65.7212 26.4377C67.0892 26.4377 68.0492 25.0217 68.0492 22.2137C68.0492 19.4057 67.0892 18.0377 65.7212 18.0377C64.3292 18.0377 63.3932 19.4057 63.3932 22.2137C63.3932 25.0217 64.3292 26.4377 65.7212 26.4377Z" fill="#333333"/>
<path d="M93.0407 21.0107H178.673C180.882 21.0107 182.673 22.8016 182.673 25.0107V90.1026" stroke="#333333"/>
<path d="M190.143 45.2861C231.744 45.2861 271.641 61.8121 301.057 91.2285L212.326 179.96C206.442 174.077 198.463 170.772 190.143 170.772V45.2861Z" fill="#023047"/>
<path d="M301.057 91.2285C328.563 118.734 344.867 155.478 346.805 194.329C348.743 233.179 336.176 271.364 311.545 301.47C286.913 331.576 251.973 351.456 213.509 357.25C175.044 363.045 135.799 354.34 103.391 332.827L172.792 228.28C179.274 232.583 187.123 234.324 194.816 233.165C202.509 232.006 209.497 228.03 214.423 222.009C219.35 215.987 221.863 208.35 221.475 200.58C221.088 192.81 217.827 185.461 212.326 179.96L301.057 91.2285Z" fill="#6E8B9A"/>
<path d="M105.513 334.211C76.3739 315.539 54.2283 287.754 42.5256 255.184C30.8229 222.614 30.2201 187.089 40.8112 154.141L160.276 192.543C158.158 199.132 158.279 206.237 160.619 212.751C162.96 219.265 167.389 224.822 173.217 228.557L105.513 334.211Z" fill="#FFE609"/>
<path d="M40.8112 154.141C50.1717 125.021 67.8417 99.2736 91.6465 80.0668C115.451 60.8601 144.352 49.0323 174.793 46.039L187.073 170.922C180.985 171.521 175.204 173.887 170.444 177.728C165.683 181.569 162.149 186.719 160.276 192.543L40.8112 154.141Z" fill="#8ECAE6"/>
<path d="M174.793 46.039C179.894 45.5374 185.017 45.2861 190.143 45.2861V170.772C189.118 170.772 188.093 170.822 187.073 170.922L174.793 46.039Z" fill="#FB8500"/>
<path d="M199.112 110V108.176H203.024V95.072H199.88V93.656C201.464 93.392 202.592 92.984 203.528 92.408H205.208V108.176H208.76V110H199.112ZM217.104 110.336C214.344 110.336 212.64 109.184 211.488 107.912L212.592 106.472C213.624 107.552 214.944 108.512 216.96 108.512C219.048 108.512 220.536 107.24 220.536 105.224C220.536 103.112 219.12 101.72 215.064 101.72V100.016C218.689 100.016 219.913 98.576 219.913 96.656C219.913 94.976 218.784 93.872 216.96 93.872C215.544 93.872 214.296 94.592 213.312 95.6L212.136 94.184C213.456 92.984 215.016 92.096 217.033 92.096C219.984 92.096 222.145 93.704 222.145 96.512C222.145 98.648 220.897 100.064 219.025 100.736V100.832C221.089 101.336 222.768 102.896 222.768 105.32C222.768 108.44 220.249 110.336 217.104 110.336ZM227.897 110.336C227.033 110.336 226.337 109.64 226.337 108.656C226.337 107.648 227.033 106.976 227.897 106.976C228.785 106.976 229.505 107.648 229.505 108.656C229.505 109.64 228.785 110.336 227.897 110.336ZM238.441 110.336C235.201 110.336 232.825 108.368 232.825 105.656C232.825 103.28 234.457 101.648 236.065 100.784V100.688C234.769 99.8 233.665 98.456 233.665 96.608C233.665 93.944 235.753 92.168 238.513 92.168C241.513 92.168 243.337 94.088 243.337 96.776C243.337 98.648 242.041 100.208 240.985 101.024V101.144C242.521 102.032 243.961 103.376 243.961 105.776C243.961 108.344 241.729 110.336 238.441 110.336ZM239.641 100.472C240.841 99.416 241.465 98.216 241.465 96.896C241.465 95.168 240.361 93.776 238.465 93.776C236.857 93.776 235.681 94.928 235.681 96.608C235.681 98.72 237.577 99.656 239.641 100.472ZM238.489 108.68C240.505 108.68 241.849 107.456 241.849 105.704C241.849 103.352 239.689 102.464 237.217 101.456C235.777 102.368 234.793 103.76 234.793 105.44C234.793 107.312 236.377 108.68 238.489 108.68ZM250.265 110C250.577 103.352 251.777 99.08 255.233 94.28H246.713V92.408H257.705V93.728C253.577 99.032 252.833 103.136 252.545 110H250.265ZM264.25 103.184C261.826 103.184 260.242 101.168 260.242 97.616C260.242 94.088 261.826 92.096 264.25 92.096C266.674 92.096 268.258 94.088 268.258 97.616C268.258 101.168 266.674 103.184 264.25 103.184ZM264.25 101.84C265.642 101.84 266.578 100.4 266.578 97.616C266.578 94.808 265.642 93.44 264.25 93.44C262.858 93.44 261.898 94.808 261.898 97.616C261.898 100.4 262.858 101.84 264.25 101.84ZM264.754 110.336L274.45 92.096H275.938L266.242 110.336H264.754ZM276.514 110.336C274.09 110.336 272.506 108.32 272.506 104.744C272.506 101.24 274.09 99.224 276.514 99.224C278.89 99.224 280.498 101.24 280.498 104.744C280.498 108.32 278.89 110.336 276.514 110.336ZM276.514 108.992C277.882 108.992 278.842 107.552 278.842 104.744C278.842 101.936 277.882 100.592 276.514 100.592C275.122 100.592 274.162 101.936 274.162 104.744C274.162 107.552 275.122 108.992 276.514 108.992Z" fill="white"/>
<path d="M229.76 260.4H235.16V255C235.16 254.136 235.232 252.72 235.28 251.808H235.184C234.752 252.672 234.272 253.536 233.768 254.4L229.76 260.4ZM235.16 267V262.152H227.48V260.712L234.8 249.384H237.224V260.4H239.552V262.152H237.224V267H235.16ZM247.056 267.312C244.32 267.312 242.64 266.16 241.464 264.984L242.544 263.544C243.552 264.552 244.824 265.488 246.865 265.488C248.928 265.488 250.608 263.904 250.608 261.336C250.608 258.816 249.168 257.328 246.96 257.328C245.784 257.328 245.04 257.688 244.032 258.36L242.856 257.64L243.408 249.384H251.977V251.28H245.328L244.896 256.368C245.688 255.936 246.456 255.672 247.512 255.672C250.44 255.672 252.817 257.4 252.817 261.264C252.817 265.128 250.033 267.312 247.056 267.312ZM257.921 267.312C257.057 267.312 256.337 266.64 256.337 265.656C256.337 264.648 257.057 263.952 257.921 263.952C258.785 263.952 259.505 264.648 259.505 265.656C259.505 266.64 258.785 267.312 257.921 267.312ZM263.857 267V265.176H267.769V252.048H264.649V250.656C266.209 250.368 267.337 249.96 268.297 249.384H269.977V265.176H273.505V267H263.857ZM281.873 267.312C279.113 267.312 277.385 266.16 276.233 264.912L277.337 263.472C278.369 264.552 279.713 265.488 281.705 265.488C283.793 265.488 285.281 264.24 285.281 262.2C285.281 260.112 283.865 258.696 279.809 258.696V257.016C283.433 257.016 284.681 255.552 284.681 253.656C284.681 251.976 283.529 250.872 281.705 250.872C280.289 250.872 279.041 251.568 278.057 252.576L276.881 251.184C278.201 249.96 279.761 249.072 281.801 249.072C284.753 249.072 286.913 250.704 286.913 253.488C286.913 255.624 285.641 257.04 283.793 257.736V257.832C285.857 258.312 287.513 259.896 287.513 262.296C287.513 265.44 284.993 267.312 281.873 267.312ZM294.25 260.184C291.85 260.184 290.266 258.144 290.266 254.592C290.266 251.064 291.85 249.072 294.25 249.072C296.674 249.072 298.258 251.064 298.258 254.592C298.258 258.144 296.674 260.184 294.25 260.184ZM294.25 258.816C295.642 258.816 296.602 257.4 296.602 254.592C296.602 251.784 295.642 250.416 294.25 250.416C292.882 250.416 291.922 251.784 291.922 254.592C291.922 257.4 292.882 258.816 294.25 258.816ZM294.778 267.312L304.474 249.072H305.962L296.242 267.312H294.778ZM306.514 267.312C304.114 267.312 302.506 265.296 302.506 261.744C302.506 258.216 304.114 256.224 306.514 256.224C308.914 256.224 310.498 258.216 310.498 261.744C310.498 265.296 308.914 267.312 306.514 267.312ZM306.514 265.968C307.882 265.968 308.842 264.552 308.842 261.744C308.842 258.936 307.882 257.568 306.514 257.568C305.122 257.568 304.186 258.936 304.186 261.744C304.186 264.552 305.122 265.968 306.514 265.968Z" fill="#333333"/>
<path d="M42.056 240V238.704C47.576 233.88 50.12 230.376 50.12 227.352C50.12 225.336 49.064 223.872 46.88 223.872C45.44 223.872 44.192 224.76 43.232 225.912L41.96 224.664C43.4 223.104 44.912 222.072 47.144 222.072C50.288 222.072 52.256 224.136 52.256 227.28C52.256 230.784 49.496 234.36 45.368 238.272C46.28 238.2 47.36 238.104 48.248 238.104H53.12V240H42.056ZM61.4645 240.312C58.1045 240.312 55.9685 237.264 55.9685 231.144C55.9685 225.024 58.1045 222.072 61.4645 222.072C64.8005 222.072 66.9365 225.048 66.9365 231.144C66.9365 237.264 64.8005 240.312 61.4645 240.312ZM61.4645 238.56C63.4565 238.56 64.8005 236.328 64.8005 231.144C64.8005 226.008 63.4565 223.824 61.4645 223.824C59.4485 223.824 58.1045 226.008 58.1045 231.144C58.1045 236.328 59.4485 238.56 61.4645 238.56ZM71.921 240.312C71.057 240.312 70.337 239.64 70.337 238.656C70.337 237.648 71.057 236.952 71.921 236.952C72.785 236.952 73.505 237.648 73.505 238.656C73.505 239.64 72.785 240.312 71.921 240.312ZM78.8647 227.784C78.8647 230.16 79.9207 231.696 82.0087 231.696C83.2087 231.696 84.5527 231 85.6807 229.344C85.4407 225.72 84.0967 223.8 81.8407 223.8C80.1607 223.8 78.8647 225.384 78.8647 227.784ZM81.3607 240.312C79.4647 240.312 78.1207 239.544 77.1367 238.512L78.3607 237.144C79.0807 237.984 80.1607 238.488 81.2887 238.488C83.5687 238.488 85.5367 236.616 85.7047 231.168C84.6247 232.488 83.1127 233.328 81.6487 233.328C78.7207 233.328 76.8007 231.432 76.8007 227.784C76.8007 224.376 79.1047 222.072 81.8407 222.072C85.2247 222.072 87.7447 224.856 87.7447 230.448C87.7447 237.576 84.6727 240.312 81.3607 240.312ZM95.8012 240.312C93.0652 240.312 91.3852 239.16 90.2092 237.984L91.2892 236.544C92.2972 237.552 93.5692 238.488 95.6092 238.488C97.6732 238.488 99.3532 236.904 99.3532 234.336C99.3532 231.816 97.9132 230.328 95.7052 230.328C94.5292 230.328 93.7852 230.688 92.7772 231.36L91.6012 230.64L92.1532 222.384H100.721V224.28H94.0732L93.6412 229.368C94.4332 228.936 95.2012 228.672 96.2572 228.672C99.1852 228.672 101.561 230.4 101.561 234.264C101.561 238.128 98.7772 240.312 95.8012 240.312ZM108.25 233.184C105.85 233.184 104.266 231.144 104.266 227.592C104.266 224.064 105.85 222.072 108.25 222.072C110.674 222.072 112.258 224.064 112.258 227.592C112.258 231.144 110.674 233.184 108.25 233.184ZM108.25 231.816C109.642 231.816 110.602 230.4 110.602 227.592C110.602 224.784 109.642 223.416 108.25 223.416C106.882 223.416 105.922 224.784 105.922 227.592C105.922 230.4 106.882 231.816 108.25 231.816ZM108.778 240.312L118.474 222.072H119.962L110.242 240.312H108.778ZM120.514 240.312C118.114 240.312 116.506 238.296 116.506 234.744C116.506 231.216 118.114 229.224 120.514 229.224C122.914 229.224 124.498 231.216 124.498 234.744C124.498 238.296 122.914 240.312 120.514 240.312ZM120.514 238.968C121.882 238.968 122.842 237.552 122.842 234.744C122.842 231.936 121.882 230.568 120.514 230.568C119.122 230.568 118.186 231.936 118.186 234.744C118.186 237.552 119.122 238.968 120.514 238.968Z" fill="#171B3C"/>
<path d="M67.1425 135.776V133.952H71.0545V120.824H67.9345V119.432C69.4945 119.144 70.6225 118.736 71.5825 118.16H73.2625V133.952H76.7905V135.776H67.1425ZM85.519 136.088C82.279 136.088 79.903 134.12 79.903 131.408C79.903 129.056 81.535 127.424 83.143 126.56V126.44C81.847 125.552 80.767 124.232 80.767 122.384C80.767 119.696 82.855 117.92 85.591 117.92C88.591 117.92 90.415 119.84 90.415 122.552C90.415 124.4 89.119 125.984 88.063 126.8V126.92C89.599 127.808 91.039 129.128 91.039 131.528C91.039 134.096 88.831 136.088 85.519 136.088ZM86.719 126.224C87.919 125.168 88.543 123.968 88.543 122.672C88.543 120.944 87.463 119.528 85.567 119.528C83.935 119.528 82.759 120.68 82.759 122.384C82.759 124.496 84.655 125.408 86.719 126.224ZM85.567 134.456C87.583 134.456 88.951 133.232 88.951 131.48C88.951 129.128 86.791 128.24 84.295 127.232C82.879 128.144 81.895 129.536 81.895 131.216C81.895 133.088 83.455 134.456 85.567 134.456ZM95.9515 136.088C95.0875 136.088 94.3675 135.416 94.3675 134.432C94.3675 133.424 95.0875 132.728 95.9515 132.728C96.8155 132.728 97.5355 133.424 97.5355 134.432C97.5355 135.416 96.8155 136.088 95.9515 136.088ZM102.535 129.176H107.935V123.776C107.935 122.912 108.007 121.496 108.055 120.584H107.959C107.527 121.448 107.047 122.312 106.543 123.176L102.535 129.176ZM107.935 135.776V130.928H100.255V129.488L107.575 118.16H109.999V129.176H112.327V130.928H109.999V135.776H107.935ZM118.32 135.776C118.608 129.104 119.832 124.856 123.264 120.056H114.744V118.16H125.76V119.504C121.632 124.784 120.864 128.888 120.6 135.776H118.32ZM132.28 128.96C129.88 128.96 128.296 126.92 128.296 123.368C128.296 119.84 129.88 117.848 132.28 117.848C134.704 117.848 136.288 119.84 136.288 123.368C136.288 126.92 134.704 128.96 132.28 128.96ZM132.28 127.592C133.672 127.592 134.632 126.176 134.632 123.368C134.632 120.56 133.672 119.192 132.28 119.192C130.912 119.192 129.952 120.56 129.952 123.368C129.952 126.176 130.912 127.592 132.28 127.592ZM132.808 136.088L142.504 117.848H143.992L134.272 136.088H132.808ZM144.544 136.088C142.144 136.088 140.536 134.072 140.536 130.52C140.536 126.992 142.144 125 144.544 125C146.944 125 148.528 126.992 148.528 130.52C148.528 134.072 146.944 136.088 144.544 136.088ZM144.544 134.744C145.912 134.744 146.872 133.328 146.872 130.52C146.872 127.712 145.912 126.344 144.544 126.344C143.152 126.344 142.216 127.712 142.216 130.52C142.216 133.328 143.152 134.744 144.544 134.744Z" fill="#171B3C"/>
</svg>
