<svg width="24" height="25" viewBox="0 0 24 25" fill="none" xmlns="http://www.w3.org/2000/svg">
<g id="icon">
<path id="Vector" d="M17 11L21 7V18L17 14V17.5C17 17.7652 16.8946 18.0196 16.7071 18.2071C16.5196 18.3946 16.2652 18.5 16 18.5H4C3.73478 18.5 3.48043 18.3946 3.29289 18.2071C3.10536 18.0196 3 17.7652 3 17.5V7.5C3 7.23478 3.10536 6.98043 3.29289 6.79289C3.48043 6.60536 3.73478 6.5 4 6.5H16C16.2652 6.5 16.5196 6.60536 16.7071 6.79289C16.8946 6.98043 17 7.23478 17 7.5V11ZM10.91 10.05L9.2 12.32L10.5 14.05L9.77 14.59L7.73 11.86L5 15.5H15L10.91 10.05Z" fill="white"/>
</g>
</svg>
